<?xml version="1.0" encoding="UTF-8"?>
<svg id="Layer_1" data-name="Layer 1" xmlns="http://www.w3.org/2000/svg" viewBox="0 0 100 100">
  <defs>
    <style>
      .cls-1 {
        fill: #d0a43e;
      }

      .cls-2 {
        fill: #0b3e78;
      }

      .cls-3 {
        fill: #fdfcfc;
      }
    </style>
  </defs>
  <path class="cls-1" d="M96.66,50c0,25.76-20.89,46.64-46.66,46.64S3.34,75.76,3.34,50,24.23,3.36,50,3.36s46.66,20.88,46.66,46.64ZM95.16,49.97c0-24.93-20.22-45.14-45.16-45.14S4.85,25.04,4.85,49.97s20.22,45.14,45.16,45.14,45.16-20.21,45.16-45.14Z"/>
  <path class="cls-3" d="M95.16,49.97c0,24.93-20.22,45.14-45.16,45.14S4.85,74.9,4.85,49.97,25.06,4.83,50.01,4.83s45.16,20.21,45.16,45.14ZM39.92,43.37c-.08-2.1.72-3.02,1.39-3.24,1.31-.44,5.65-.45,6.74.11.75.38,1.17,1.62,1.42,3.18l17.12.06c1.68,0,2.61-1.14,2.6-2.76l-.03-8.62c0-1.33-.8-2.85-2.19-2.89l-12.36-.38c.52-2.33,1.21-7.22-1.52-8.29-4.05-1.58-9.17,0-13.53-.57-1.81-.23-3.25.26-4.16,1.14-1.46,1.41-1.45,6.88-.24,7.08.54.09,2.21.41,2.11-.79-.08-.94-.42-3.9.83-3.92l13.34-.22c.81,1.87.73,3.56.41,5.81l-29.36.1c-1.23,0-2.39,1.27-2.39,2.41l-.04,9c0,1.67,1.19,2.92,2.88,2.91l16.97-.1ZM41.8,42.02l-.02,6.48,5.59.02.02-6.48-5.59-.02ZM63.62,49.86c1.44-.66,3.28.97,4.46,1.52.41-1.97.27-3.71.14-5.44l-18.79.22c-.05,1.58-.49,3.1-1.36,3.6-1.79,1.03-6.73.41-7.46-.63-.45-.64-.64-1.78-.74-3l-18.96-.12.02,20.45c0,1.56,1.22,2.95,2.91,2.95l25.74-.1c.97-.82.8-3.4-.31-3.96l-5.35-2.68c-.77-.39-1.13-1.24-1.15-1.86-.01-.51.39-1.61,1.15-1.96l19.71-8.99ZM81.09,76.33l-.22-4.64c-.13-2.72-1.17-6.29-.13-8.91.26-.6,2.31-.89,1.87-2.5l-18.22-8.49-19.02,9.09,18.5,9.36,14.86-6.69c1.17,5.29-1.9,11.46-.3,13.1.6.62,2.7.49,2.66-.31ZM74.82,67.69c-3.95,1.1-7.27,4.05-10.8,4.32l-11.89-5.1v10.14c8.15,6.61,22.66,2.47,22.67-.96l.02-8.4Z"/>
  <g>
    <g>
      <path class="cls-1" d="M81.09,76.33c.04.8-2.06.92-2.66.31-1.61-1.64,1.47-7.81.3-13.1l-14.86,6.69-18.5-9.36,19.02-9.09,18.22,8.49c.44,1.62-1.61,1.9-1.87,2.5-1.04,2.62,0,6.18.13,8.91l.22,4.64Z"/>
      <path class="cls-1" d="M74.82,67.69l-.02,8.4c0,3.44-14.52,7.58-22.67.96v-10.14s11.89,5.1,11.89,5.1c3.53-.27,6.84-3.22,10.8-4.32Z"/>
    </g>
    <g>
      <path class="cls-2" d="M39.92,43.37l-16.97.1c-1.69,0-2.89-1.24-2.88-2.91l.04-9c0-1.14,1.16-2.41,2.39-2.41l29.36-.1c.32-2.25.4-3.94-.41-5.81l-13.34.22c-1.26.02-.91,2.98-.83,3.92.1,1.19-1.57.88-2.11.79-1.2-.2-1.21-5.67.24-7.08.91-.88,2.35-1.38,4.16-1.14,4.36.56,9.48-1.01,13.53.57,2.73,1.07,2.04,5.96,1.52,8.29l12.36.38c1.39.04,2.18,1.56,2.19,2.89l.03,8.62c0,1.63-.92,2.77-2.6,2.76l-17.12-.06c-.24-1.56-.67-2.8-1.42-3.18-1.1-.56-5.44-.55-6.74-.11-.67.23-1.47,1.15-1.39,3.24Z"/>
      <path class="cls-2" d="M63.62,49.86l-19.71,8.99c-.76.35-1.16,1.45-1.15,1.96.01.63.38,1.48,1.15,1.86l5.35,2.68c1.11.56,1.28,3.14.31,3.96l-25.74.1c-1.68,0-2.91-1.39-2.91-2.95l-.02-20.45,18.96.12c.11,1.23.3,2.37.74,3,.73,1.04,5.67,1.66,7.46.63.87-.5,1.3-2.02,1.36-3.6l18.79-.22c.12,1.73.27,3.47-.14,5.44-1.18-.55-3.01-2.18-4.46-1.52Z"/>
      <rect class="cls-1" x="41.34" y="42.47" width="6.48" height="5.59" transform="translate(-.82 89.71) rotate(-89.82)"/>
    </g>
  </g>
</svg>