<?xml version="1.0" encoding="UTF-8"?>
<svg id="Layer_1" data-name="Layer 1" xmlns="http://www.w3.org/2000/svg" viewBox="0 0 100 100">
  <defs>
    <style>
      .cls-1 {
        fill: #d0a43e;
      }

      .cls-2 {
        fill: #0b3e78;
      }

      .cls-3 {
        fill: #fdfcfc;
      }
    </style>
  </defs>
  <path class="cls-1" d="M96.3,50c0,25.56-20.73,46.28-46.3,46.28S3.7,75.56,3.7,50,24.43,3.72,50,3.72s46.3,20.72,46.3,46.28ZM94.77,49.99c0-24.72-20.05-44.75-44.77-44.75S5.22,25.27,5.22,49.99s20.05,44.75,44.77,44.75,44.77-20.04,44.77-44.75Z"/>
  <path class="cls-3" d="M94.77,49.99c0,24.72-20.05,44.75-44.77,44.75S5.22,74.7,5.22,49.99,25.27,5.23,49.99,5.23s44.77,20.04,44.77,44.75ZM34.66,62.41l.9,6.71c-5.08-4.7-11.49-6.1-18.17-6.71,3.13,11.68,17.36,21.53,28.86,18.48-2.47-.6-3.54-1.56-4.4-2.8l4.19,1.69c.56.23,1.55.46,2.06.2s.84-1.09,1.36-2.25c.43.67.79,1.95,1.7,2.18,1.28.33,2.55-.54,3.94-.62l-2.24,1.95c13.14,1.68,24.91-6.98,28.79-18.98-6.59.53-13.27,2.09-17.63,6.79-1.68,1.81-2.37,6.41-4.73,7.32,2.49-3.81,4.1-8.68,4.8-13.61,2.72-.1,5.72-2.23,5.97-3.9.18-1.18-.22-2.13-.63-3.14,1.33.02,2.82-.32,3.27-.99.36-3.43-7.76-2.5-10.89-9.21-1.54-3.3-1.15-6.97-1.79-10.39-.97-5.23-7.54-3.99-8.26-5.87-.38-1.01-.2-1.84.77-2.99,2.6-3.07,1.68-10.56-2.76-11.59-2.83-.61-4.16,3.79-4.52,5.72-.43,2.33.52,5.46,2.29,7.61.78.95-1.33,2.45-2.25,2.51-9.24.61-4.92,10.43-8.48,15.95-4.18,6.47-10.58,3.97-11.01,8.5l3.28.92c-.67,1.26-1.01,2.52-.4,3.46,1.36,2.1,3.78,3.12,5.97,3.05Z"/>
  <path class="cls-3" d="M41.84,78.1c-3.58-1.58-6.1-6.19-6.28-8.98l6.28,8.98Z"/>
  <path class="cls-3" d="M59.28,76.37c-.66.25-.7,1.78-2.09,1.5-.2-.89,1-1,2.09-1.5Z"/>
  <path class="cls-3" d="M57.19,77.87c-.08.47-.25,1.02-.58,1.24-.52.34-1.08.12-1.53.19.58-.51,1.08-1.63,2.11-1.43Z"/>
  <g>
    <g>
      <path class="cls-2" d="M64.08,62.76c-.7,4.93-2.31,9.8-4.8,13.61-1.09.5-2.29.61-2.09,1.5-1.03-.21-1.52.92-2.11,1.43-1.39.08-2.65.95-3.94.62-.92-.24-1.27-1.51-1.7-2.18-.52,1.16-.85,1.99-1.36,2.25s-1.5.03-2.06-.2l-4.19-1.69-6.28-8.98-.9-6.71c-.1-.85.09-1.83.45-2.63l8.54,3.78c1.99-3.2,3.39-6,6.02-8.4,2.26,2.78,3.77,5.39,5.28,8.67,3.12-1.86,5.41-3.4,8.82-4.14.59,1.08.46,2.02.31,3.07Z"/>
      <path class="cls-2" d="M35.55,69.12c.18,2.79,2.7,7.41,6.28,8.98.86,1.23,1.94,2.2,4.4,2.8-11.49,3.04-25.73-6.8-28.86-18.48,6.68.61,13.09,2.01,18.17,6.71Z"/>
      <path class="cls-2" d="M55.08,79.3c.44-.07,1.01.15,1.53-.19.32-.22.5-.76.58-1.24,1.39.28,1.43-1.25,2.09-1.5,2.36-.91,3.05-5.5,4.73-7.32,4.36-4.7,11.03-6.26,17.63-6.79-3.88,12.01-15.64,20.66-28.79,18.98l2.24-1.95Z"/>
    </g>
    <g>
      <path class="cls-1" d="M64.08,62.76c.15-1.05.27-1.99-.31-3.07-3.41.74-5.7,2.28-8.82,4.14-1.51-3.27-3.02-5.89-5.28-8.67-2.62,2.39-4.03,5.2-6.02,8.4l-8.54-3.78c-.36.8-.54,1.78-.45,2.63-2.19.07-4.61-.95-5.97-3.05-.61-.94-.27-2.2.4-3.46l-3.28-.92c.43-4.54,6.83-2.03,11.01-8.5,3.56-5.52-.76-15.34,8.48-15.95.92-.06,3.03-1.57,2.25-2.51-1.77-2.15-2.73-5.28-2.29-7.61.36-1.93,1.69-6.33,4.52-5.72,4.44,1.04,5.36,8.52,2.76,11.59-.97,1.15-1.15,1.98-.77,2.99.72,1.89,7.28.64,8.26,5.87.64,3.42.25,7.09,1.79,10.39,3.13,6.71,11.25,5.78,10.89,9.21-.45.67-1.95,1.01-3.27.99.41,1.01.81,1.96.63,3.14-.25,1.66-3.25,3.8-5.97,3.9ZM40.81,54.56c4.01-2.76,3.36-8.55,1.97-13.79-1.53,8.13-3.77,9.48-10.39,13.6l8.42.19ZM65.76,53.96c-5.8-4.16-8.76-6.05-8.97-13.09-2.83,4.67-2.03,12.55,1.53,13.53,2.18.6,5-.49,7.44-.45Z"/>
      <path class="cls-3" d="M40.81,54.56l-8.42-.19c6.61-4.12,8.85-5.47,10.39-13.6,1.39,5.24,2.04,11.02-1.97,13.79Z"/>
      <path class="cls-3" d="M65.76,53.96c-2.44-.05-5.25,1.05-7.44.45-3.57-.98-4.37-8.87-1.53-13.53.21,7.04,3.17,8.93,8.97,13.09Z"/>
    </g>
  </g>
</svg>