<?xml version="1.0" encoding="UTF-8"?>
<svg id="Layer_1" data-name="Layer 1" xmlns="http://www.w3.org/2000/svg" viewBox="0 0 100 100">
  <defs>
    <style>
      .cls-1 {
        fill: #d0a43e;
      }

      .cls-2 {
        fill: #0b3e78;
      }

      .cls-3 {
        fill: #fdfcfc;
      }
    </style>
  </defs>
  <path class="cls-1" d="M96.9,50c0,25.89-21,46.88-46.9,46.88S3.1,75.89,3.1,50,24.1,3.12,50,3.12s46.9,20.99,46.9,46.88ZM95.36,49.98c0-25.05-20.32-45.36-45.38-45.36S4.6,24.93,4.6,49.98s20.32,45.36,45.38,45.36,45.38-20.31,45.38-45.36Z"/>
  <path class="cls-3" d="M95.36,49.98c0,25.05-20.32,45.36-45.38,45.36S4.6,75.03,4.6,49.98,24.92,4.62,49.98,4.62s45.38,20.31,45.38,45.36ZM50.3,12.55h-1.32v9.9h1.32v-9.9ZM35.6,17.1l-1.36.89,5.02,7.7,1.36-.89-5.02-7.7ZM64.2,17.82c-.91-.88-1.53-.05-1.93.69l-3.35,6.17c.12.24.45.49.59.53,1.82-1.87,3.15-4.85,4.69-7.39ZM72.63,25.93c.67-.68-.3-1.58-.88-1.11-2.35,2.04-5.36,3.3-7.13,6.05,3.29-.72,5.35-3.07,8.01-4.95ZM33.97,30.82l.23-1.27-7.34-4.69c.02.1.09.58-.17.93,2.33,1.75,4.62,3.76,7.28,5.04ZM53.2,31.7c-1.65-1.32-4.09-1.51-6.1-.47-2.51,1.3-3.72,4.11-3.62,6.56.1,2.61,1.26,5.47,3.84,6.64,2.16.98,4.67.56,6.3-1.06,3.33-3.32,3.07-8.9-.42-11.67ZM21.25,38.94v1.32h10.56v-1.32h-10.56ZM66.81,38.94v1.32h11.22v-1.32h-11.22ZM70.14,84.54c2.03-.3,3.37-1.7,3.6-3.23.29-1.9-.4-3.15-1.9-4.81,1.61.31,3.83-.15,3.85-1.29.06-3.06-2.91-3.12-4.87-3.92-2.72-1.11-5.25-4.05-6.63-6.58-3.38-6.18-.26-14.52-8.97-16.21-3.56-.69-7.63-.63-11.19-.03-9.41,1.58-5.63,11.42-9.5,16.97-1.38,1.98-3.41,4.5-5.74,5.45-2.08.85-5.67.94-5.52,4.47.04,1.06,2.62,1.32,4.07,1.09-1.57,1.72-2.27,2.89-1.92,4.95.19,1.11,1.21,2.88,3.02,3.13,13.88,1.96,27.81,2.01,41.68,0Z"/>
  <path class="cls-1" d="M72.63,25.93c-2.66,1.88-4.72,4.23-8.01,4.95,1.77-2.76,4.78-4.01,7.13-6.05.58-.47,1.55.42.88,1.11Z"/>
  <rect class="cls-1" x="36.62" y="16.8" width="1.63" height="9.19" transform="translate(-5.61 23.93) rotate(-33.12)"/>
  <rect class="cls-1" x="66.81" y="38.94" width="11.22" height="1.32"/>
  <path class="cls-1" d="M33.97,30.82c-2.66-1.29-4.95-3.3-7.28-5.04.26-.34.19-.82.17-.93l7.34,4.69-.23,1.27Z"/>
  <path class="cls-1" d="M64.2,17.82c-1.53,2.54-2.87,5.52-4.69,7.39-.15-.04-.47-.3-.59-.53l3.35-6.17c.4-.74,1.02-1.57,1.93-.69Z"/>
  <rect class="cls-1" x="21.25" y="38.94" width="10.56" height="1.32"/>
  <rect class="cls-1" x="48.98" y="12.55" width="1.32" height="9.9"/>
  <g>
    <path class="cls-2" d="M70.14,84.54c-13.86,2.02-27.79,1.96-41.68,0-1.81-.26-2.83-2.03-3.02-3.13-.35-2.07.34-3.23,1.92-4.95-1.45.23-4.02-.03-4.07-1.09-.14-3.52,3.44-3.62,5.52-4.47,2.33-.95,4.36-3.47,5.74-5.45,3.87-5.55.08-15.4,9.5-16.97,3.56-.6,7.63-.66,11.19.03,8.7,1.69,5.59,10.03,8.97,16.21,1.38,2.52,3.9,5.47,6.63,6.58,1.96.8,4.93.87,4.87,3.92-.02,1.13-2.25,1.6-3.85,1.29,1.5,1.65,2.2,2.91,1.9,4.81-.24,1.53-1.57,2.93-3.6,3.23ZM69,75.24l-7.91-6.84c-2.36-2.04-2.35-5.38-3.34-8.46-2.8,6.52-.98,15.46,2.17,15.42l9.08-.12ZM39.24,75.04c2.47-.85,3.61-4.28,3.41-6.32l-.84-8.49-2.6,6.63c-2.4,3.49-6.03,5.4-9.19,8.34,3.27.31,6.29.85,9.22-.16Z"/>
    <path class="cls-2" d="M53.2,31.7c3.49,2.77,3.75,8.35.42,11.67-1.63,1.62-4.14,2.04-6.3,1.06-2.58-1.17-3.74-4.02-3.84-6.64-.1-2.45,1.12-5.26,3.62-6.56,2.01-1.04,4.45-.85,6.1.47Z"/>
    <path class="cls-3" d="M69,75.24l-9.08.12c-3.15.04-4.96-8.9-2.17-15.42.99,3.07.97,6.41,3.34,8.46l7.91,6.84Z"/>
    <path class="cls-3" d="M39.24,75.04c-2.93,1.01-5.95.47-9.22.16,3.16-2.94,6.78-4.85,9.19-8.34l2.6-6.63.84,8.49c.2,2.05-.94,5.48-3.41,6.32Z"/>
  </g>
</svg>