<?xml version="1.0" encoding="UTF-8"?>
<svg id="Layer_1" data-name="Layer 1" xmlns="http://www.w3.org/2000/svg" viewBox="0 0 100 100">
  <defs>
    <style>
      .cls-1 {
        fill: #d0a43e;
      }

      .cls-2 {
        fill: #0b3e78;
      }

      .cls-3 {
        fill: #fdfcfc;
      }
    </style>
  </defs>
  <path class="cls-1" d="M96.55,50c0,25.7-20.84,46.53-46.55,46.53S3.45,75.7,3.45,50,24.29,3.47,50,3.47s46.55,20.83,46.55,46.53ZM95.06,49.97c0-24.87-20.17-45.03-45.05-45.03S4.96,25.11,4.96,49.97s20.17,45.03,45.05,45.03,45.05-20.16,45.05-45.03Z"/>
  <path class="cls-3" d="M95.06,49.97c0,24.87-20.17,45.03-45.05,45.03S4.96,74.84,4.96,49.97,25.13,4.95,50.01,4.95s45.05,20.16,45.05,45.03ZM49.53,39.75l17.05-.03c1.97,0,3.31-1.59,3.31-3.5v-17.18c-.01-2.03-1.36-3.22-3.33-3.22l-25.74.03c-1.8,0-3.29,1.34-3.27,3.23l.15,17.67c.02,2.1,2.84,3.08,4.79,2.98l.35,6.06,6.69-6.05ZM38.76,56.24c1.76-3.27,1.25-7.07-1.02-9.39-2.28-2.33-5.94-3.08-8.82-1.77s-4.76,4.12-4.74,7.64c.02,3.81,2.63,6.84,5.95,7.58s6.78-.62,8.62-4.06ZM74.54,52.39c0-4.37-3.54-7.91-7.91-7.91s-7.91,3.54-7.91,7.91,3.54,7.91,7.91,7.91,7.91-3.54,7.91-7.91ZM45.76,80.73c1.85-1.75,1.08-7.15.24-9.42-3.08-8.34-17.9-10.49-25.82-3.65-2.53,2.19-3.02,5.27-.87,7.91,3.92,4.8,9.86,6.96,16.25,6.36,3.03-.29,7.29.97,10.19-1.2ZM81.18,75.25c.95-2.71-1.32-6.79-3.65-8.34-5.75-3.81-12.72-4.32-18.85-1.69-9.11,3.9-7.32,15.34-5.49,15.98,6,2.12,22.99,1.38,28-5.96Z"/>
  <path class="cls-2" d="M81.18,75.25c-5.01,7.34-22,8.07-28,5.96-1.83-.65-3.61-12.08,5.49-15.98,6.14-2.63,13.1-2.12,18.85,1.69,2.33,1.54,4.6,5.63,3.65,8.34Z"/>
  <path class="cls-2" d="M45.76,80.73c-2.9,2.17-7.16.91-10.19,1.2-6.39.6-12.34-1.55-16.25-6.36-2.15-2.64-1.66-5.73.87-7.91,7.92-6.84,22.74-4.69,25.82,3.65.84,2.27,1.61,7.67-.24,9.42Z"/>
  <path class="cls-2" d="M38.76,56.24c-1.84,3.44-5.25,4.81-8.62,4.06s-5.93-3.77-5.95-7.58c-.02-3.52,1.78-6.31,4.74-7.64s6.54-.56,8.82,1.77c2.27,2.32,2.77,6.11,1.02,9.39Z"/>
  <circle class="cls-2" cx="66.63" cy="52.39" r="7.91"/>
  <g>
    <path class="cls-1" d="M49.53,39.75l-6.69,6.05-.35-6.06c-1.95.1-4.78-.88-4.79-2.98l-.15-17.67c-.02-1.89,1.47-3.23,3.27-3.23l25.74-.03c1.96,0,3.32,1.19,3.32,3.22v17.18c.01,1.91-1.33,3.5-3.3,3.5l-17.05.03ZM63.47,21.92h-19.81s0,2.43,0,2.43h19.81s0-2.43,0-2.43ZM63.4,26.93l-19.65.05v2.57s19.66-.05,19.66-.05v-2.57ZM43.76,31.84v2.3s11.78.04,11.78.04v-2.3s-11.78-.04-11.78-.04Z"/>
    <rect class="cls-3" x="43.67" y="21.93" width="19.81" height="2.41"/>
    <rect class="cls-3" x="43.75" y="26.96" width="19.65" height="2.57" transform="translate(-.07 .13)"/>
    <rect class="cls-3" x="48.5" y="27.11" width="2.3" height="11.79" transform="translate(16.49 82.55) rotate(-89.82)"/>
  </g>
</svg>