<?xml version="1.0" encoding="UTF-8"?>
<svg id="Layer_1" data-name="Layer 1" xmlns="http://www.w3.org/2000/svg" viewBox="0 0 100 100">
  <defs>
    <style>
      .cls-1 {
        fill: #d0a43e;
      }

      .cls-2 {
        fill: #0b3e78;
      }

      .cls-3 {
        fill: #fdfcfc;
      }
    </style>
  </defs>
  <path class="cls-1" d="M96.78,50c0,25.82-20.94,46.75-46.78,46.75S3.22,75.82,3.22,50,24.17,3.25,50,3.25s46.78,20.93,46.78,46.75ZM95.25,49.99c0-24.99-20.27-45.25-45.27-45.25S4.72,25,4.72,49.99s20.27,45.25,45.27,45.25,45.27-20.26,45.27-45.25Z"/>
  <path class="cls-3" d="M95.25,49.99c0,24.99-20.27,45.25-45.27,45.25S4.72,74.98,4.72,49.99,24.98,4.74,49.98,4.74s45.27,20.26,45.27,45.25ZM50.21,34.8c2.65,1.74,4.27,3.26,6.9,3.95l-1.51-8.66c1.98-2.11,4.53-3.09,6.07-6.02l-8.38-1.1c-1.42-2.67-1.83-5.39-3.87-7.93l-3.4,7.89-8.44,1.14c1.55,2.77,3.92,4.09,6.01,6.03l-1.59,8.7,8.22-3.99ZM57.22,47.65c-1.39-4.51-5.36-6.68-9.24-5.91-4.18.84-6.76,4.39-6.69,8.93.08,5.41,4.72,8.98,10.16,7.73,4.15-.95,7.32-5.77,5.78-10.76ZM35.14,51.62c0-3.39-2.75-6.13-6.13-6.13s-6.13,2.75-6.13,6.13,2.75,6.13,6.13,6.13,6.13-2.75,6.13-6.13ZM75.94,51.58c0-3.35-2.72-6.07-6.08-6.07s-6.08,2.72-6.08,6.07,2.72,6.07,6.08,6.07,6.08-2.72,6.08-6.07ZM31.25,74.76c-.94-5.49,1.51-9.18,5.54-11.86-5.76-4.12-14.66-3.51-18.36,2.89-1.48,2.56-.72,6.09-.46,8.92l13.28.05ZM80.77,74.49c.46-3.1,1-6.71-.71-9.15-3.99-5.71-12.56-6.79-18.07-2.36,4.83,2.76,6.34,7.01,6.18,11.92l12.6-.4ZM63.81,81.62c2.12-1.86,1.35-3.95,1.53-5.88.48-4.98-1.13-8.97-5.55-11.25-6.44-3.33-14.03-3.44-20.53-.24-4.75,2.34-6.39,7.04-5.74,12.12.16,1.26-.54,4.95,1.57,4.97l28.73.28Z"/>
  <g>
    <path class="cls-2" d="M63.81,81.62l-28.73-.28c-2.11-.02-1.41-3.71-1.57-4.97-.65-5.08.99-9.77,5.74-12.12,6.5-3.2,14.09-3.08,20.53.24,4.42,2.28,6.03,6.28,5.55,11.25-.19,1.93.58,4.01-1.53,5.88Z"/>
    <path class="cls-1" d="M50.21,34.8l-8.22,3.99,1.59-8.7c-2.09-1.94-4.46-3.26-6.01-6.03l8.44-1.14,3.4-7.89c2.05,2.54,2.46,5.26,3.87,7.93l8.38,1.1c-1.55,2.93-4.09,3.91-6.07,6.02l1.51,8.66c-2.63-.68-4.25-2.21-6.9-3.95Z"/>
    <path class="cls-2" d="M57.22,47.65c1.54,4.99-1.63,9.81-5.78,10.76-5.44,1.24-10.07-2.33-10.16-7.73-.07-4.54,2.51-8.09,6.69-8.93,3.88-.78,7.85,1.4,9.24,5.91Z"/>
    <path class="cls-2" d="M31.25,74.76l-13.28-.05c-.26-2.83-1.01-6.36.46-8.92,3.69-6.41,12.6-7.01,18.36-2.89-4.03,2.68-6.48,6.37-5.54,11.86Z"/>
    <path class="cls-2" d="M80.77,74.49l-12.6.4c.16-4.91-1.35-9.16-6.18-11.92,5.51-4.43,14.08-3.35,18.07,2.36,1.71,2.44,1.17,6.05.71,9.15Z"/>
    <circle class="cls-2" cx="29.01" cy="51.62" r="6.13"/>
    <circle class="cls-2" cx="69.87" cy="51.58" r="6.08"/>
  </g>
</svg>