<?xml version="1.0" encoding="UTF-8"?>
<svg id="Layer_1" data-name="Layer 1" xmlns="http://www.w3.org/2000/svg" viewBox="0 0 100 100">
  <defs>
    <style>
      .cls-1 {
        fill: #d0a43e;
      }

      .cls-2 {
        fill: #0b3e78;
      }

      .cls-3 {
        fill: #fdfcfc;
      }
    </style>
  </defs>
  <path class="cls-1" d="M96.9,50c0,25.89-21,46.88-46.9,46.88S3.1,75.89,3.1,50,24.1,3.12,50,3.12s46.9,20.99,46.9,46.88ZM95.37,50.01c0-25.05-20.31-45.35-45.37-45.35S4.63,24.96,4.63,50.01s20.31,45.35,45.37,45.35,45.37-20.31,45.37-45.35Z"/>
  <path class="cls-3" d="M95.37,50.01c0,25.05-20.31,45.35-45.37,45.35S4.63,75.05,4.63,50.01,24.94,4.65,50,4.65s45.37,20.31,45.37,45.35ZM80.92,75.42l.21-32.73c.52-.84,2.2-2.13.97-3.52h-16.96s-.06-16.56-.06-16.56c0-1.46-1.19-2.59-2.69-2.59h-25.03c-1.92,0-3.34,1.34-3.34,3.23v15.78s-17.02.42-17.02.42c-1.15.03-.19,2.96,1.14,3.33l.07,30.62c0,1.41,1.22,2.22,2.67,2.22l60.04-.19Z"/>
  <g>
    <path class="cls-2" d="M80.92,75.42l-60.04.19c-1.45,0-2.67-.8-2.67-2.22l-.07-30.62c-1.33-.37-2.29-3.31-1.14-3.33l17.03-.42v-15.78c0-1.89,1.41-3.23,3.33-3.23h25.03c1.5,0,2.69,1.13,2.69,2.59l.06,16.55h16.96c1.23,1.41-.45,2.7-.97,3.54l-.21,32.73ZM57.58,31.14c0-4.38-3.55-7.93-7.94-7.93s-7.94,3.55-7.94,7.93,3.55,7.93,7.94,7.93,7.94-3.55,7.94-7.93ZM34,42.4h-1.68s0,30.26,0,30.26h1.68s0-30.26,0-30.26ZM66.39,42.42h-1.32v30.36h1.32v-30.36ZM39.69,44.38v7.95h6.85v-7.95h-6.85ZM52.1,44.36l-.02,7.96,6.85.02.02-7.96-6.85-.02ZM28.36,46.12l-6.2.02.02,7.81,6.2-.02-.02-7.81ZM76.72,46.29h-5.89s.02,7.68.02,7.68h5.89s-.02-7.68-.02-7.68ZM46.9,59.4l-7.3.05.1,13.17,7.3-.05-.1-13.17ZM51.83,59.52v13.03h7.18v-13.03h-7.18ZM76.75,59.87l-5.98.02.03,7.48,5.98-.02-.03-7.48ZM22.15,59.92l-.06,7.53,6.3.05.06-7.53-6.3-.05Z"/>
    <path class="cls-3" d="M57.58,31.14c0,4.38-3.55,7.93-7.94,7.93s-7.94-3.55-7.94-7.93,3.55-7.93,7.94-7.93,7.94,3.55,7.94,7.93ZM51.54,36.28c.05-1.57.07-2.72.68-3.11.39-.25,1.51-.01,2.38-.25.99-.28,1.09-3.3,0-3.71-.95-.36-2.2-.12-2.59-.53s-.22-1.91-.54-2.62c-.37-.83-3.08-.95-3.53-.07-.19.68.32,2.75-.96,3.05-.7.15-2.59-.17-2.87.63-.26.76-.32,2.3.01,3.05.35.78,2.38.16,3.05.33,1.18.47.68,2.49.78,3.5.29.91,3.56.66,3.59-.27Z"/>
    <rect class="cls-3" x="39.66" y="59.43" width="7.3" height="13.17" transform="translate(-.49 .33) rotate(-.43)"/>
    <rect class="cls-3" x="51.83" y="59.52" width="7.18" height="13.03"/>
    <rect class="cls-3" x="32.33" y="42.4" width="1.68" height="30.26"/>
    <rect class="cls-3" x="51.53" y="44.92" width="7.96" height="6.85" transform="translate(7.03 103.75) rotate(-89.86)"/>
    <rect class="cls-3" x="39.69" y="44.38" width="6.85" height="7.95"/>
    <rect class="cls-3" x="70.78" y="59.88" width="5.98" height="7.48" transform="translate(-.25 .3) rotate(-.23)"/>
    <rect class="cls-3" x="70.84" y="46.29" width="5.89" height="7.66" transform="translate(-.1 .15)"/>
    <rect class="cls-3" x="21.5" y="60.56" width="7.53" height="6.3" transform="translate(-38.63 88.48) rotate(-89.55)"/>
    <rect class="cls-3" x="22.17" y="46.13" width="6.2" height="7.81" transform="translate(-.13 .07)"/>
    <rect class="cls-3" x="65.07" y="42.42" width="1.32" height="30.36"/>
    <path class="cls-1" d="M51.54,36.28c-.03.93-3.3,1.18-3.59.27-.09-1.01.4-3.02-.78-3.5-.66-.17-2.69.45-3.05-.33s-.27-2.29-.01-3.05c.28-.8,2.17-.49,2.87-.63,1.28-.3.77-2.37.96-3.05.46-.88,3.16-.75,3.53.07.32.71.15,2.22.54,2.62s1.64.17,2.59.53c1.08.41.98,3.43,0,3.71-.86.24-1.99,0-2.38.25-.61.4-.64,1.54-.68,3.11Z"/>
  </g>
</svg>