<?xml version="1.0" encoding="UTF-8"?>
<svg id="Layer_1" data-name="Layer 1" xmlns="http://www.w3.org/2000/svg" viewBox="0 0 100 100">
  <defs>
    <style>
      .cls-1 {
        fill: #d0a43e;
      }

      .cls-2 {
        fill: #0b3e78;
      }

      .cls-3 {
        fill: #fdfcfc;
      }
    </style>
  </defs>
  <path class="cls-1" d="M97.18,50c0,26.04-21.12,47.16-47.18,47.16S2.82,76.04,2.82,50,23.95,2.84,50,2.84s47.18,21.11,47.18,47.16ZM95.66,49.98c0-25.22-20.45-45.66-45.68-45.66S4.31,24.77,4.31,49.98s20.45,45.66,45.68,45.66,45.68-20.44,45.68-45.66Z"/>
  <path class="cls-3" d="M95.66,49.98c0,25.22-20.45,45.66-45.68,45.66S4.31,75.2,4.31,49.98,24.76,4.33,49.99,4.33s45.68,20.44,45.68,45.66ZM36.26,48.54c-1.25,1.05-.88,3.92.05,3.93l17.67.31.93,2.25c.21.5,1.46.54,1.92-.08.3-.4.6-1.2.82-2.27l19.31-.11.02-30.93-42.11.09.2,16.6c0,.5.92.45,1.24.08.35-.41.66-.86.68-1.62l.32-12.92,37.16.04.12,26.17-36.15.05c-.57-.77-1.13-1.67-2.18-1.6ZM28.12,36.23c2.88-1.06,3.75-3.78,3.09-5.84-.76-2.37-3.13-3.95-5.71-3.01-2.52.92-3.21,3.57-2.44,6.07.49,1.61,2.79,3.62,5.07,2.78ZM51.11,36.96l5.54,4.78,10.01-10.26c.47-.48-.3-1.81-1.03-1.59-.47.14-.83.41-1.43,1.06l-7.83,8.47-5.33-4.63c-2.18,2.49-4.69,4.22-6.17,7.4,2.99-.37,4-3.21,6.24-5.22ZM23.69,63.89c1.17-4.71,3.95-7.29,8.4-7.04v-10.39s2.44.7,2.44.7c.36.1.91-.5,1.35-.91l6.85-6.43c.81-.76.52-2.17-.18-2.69-.57-.42-1.42-.16-2.13.42l-6.12,4.99c-1.68-3.46-4.33-4.42-7.83-4.33-3.17.08-6.89,1.13-6.89,4.75l-.02,10.1,3.05,1.52c.19,3.17-1.27,6.05,1.09,9.32ZM36.09,64.14c0-2.61-2.12-4.73-4.73-4.73s-4.73,2.12-4.73,4.73,2.12,4.73,4.73,4.73,4.73-2.12,4.73-4.73ZM55.43,64.18c0-2.57-2.09-4.66-4.66-4.66s-4.66,2.09-4.66,4.66,2.09,4.66,4.66,4.66,4.66-2.09,4.66-4.66ZM71.08,68.72c2.55-.93,3.57-3.08,3.41-5.05-.14-1.73-1.16-3.67-3.23-4.16-3.26-.78-5.81,1.55-5.82,4.67-.01,2.56,2.49,5.69,5.64,4.54ZM38.55,79.64c2.21-1.9.14-6.26-1.84-7.3-6.11-3.22-12.68-.54-13.26,3.33-.17,1.13-.5,4.24,1.3,4.32,4.3.18,9.73,1.14,13.8-.35ZM57.78,79.75c2.63-2.2.14-6.76-2.17-7.82-3.6-1.65-6.4-1.5-10.06-.04-2.47.98-4.76,6.88-1.6,7.86,3.87,1.2,9.97.72,13.83,0ZM76.84,79.57c3.11-1.59.15-6.82-2.01-7.66-3.58-1.39-6.05-1.48-9.59-.13-2.66,1.01-5.09,6.49-2.06,8.07,3.63.74,10.18,1.17,13.67-.28Z"/>
  <path class="cls-1" d="M36.26,48.54c1.05-.07,1.61.83,2.18,1.6l36.15-.05-.12-26.17-37.16-.04-.32,12.92c-.02.77-.33,1.21-.68,1.62-.32.38-1.23.42-1.24-.08l-.2-16.6,42.11-.09-.02,30.93-19.31.11c-.22,1.07-.51,1.87-.82,2.27-.47.62-1.72.58-1.92.08l-.93-2.25-17.67-.31c-.93-.02-1.3-2.89-.05-3.93Z"/>
  <path class="cls-2" d="M23.69,63.89c-2.36-3.27-.91-6.16-1.09-9.32l-3.05-1.52.02-10.1c0-3.62,3.72-4.67,6.89-4.75,3.49-.09,6.15.87,7.83,4.33l6.12-4.99c.71-.58,1.56-.84,2.13-.42.71.52,1,1.93.18,2.69l-6.85,6.43c-.43.41-.99,1.01-1.35.91l-2.45-.7v10.39c-4.45-.25-7.22,2.33-8.4,7.04Z"/>
  <path class="cls-2" d="M57.78,79.75c-3.85.72-9.96,1.2-13.83,0-3.17-.98-.88-6.87,1.6-7.86,3.67-1.46,6.46-1.6,10.06.04,2.31,1.05,4.79,5.61,2.17,7.82Z"/>
  <path class="cls-2" d="M38.55,79.64c-4.07,1.49-9.51.53-13.8.35-1.8-.07-1.47-3.19-1.3-4.32.58-3.88,7.15-6.56,13.26-3.33,1.98,1.04,4.05,5.41,1.84,7.3Z"/>
  <path class="cls-2" d="M76.84,79.57c-3.49,1.45-10.04,1.01-13.67.28-3.02-1.58-.6-7.06,2.06-8.07,3.54-1.35,6.01-1.26,9.59.13,2.16.84,5.12,6.07,2.01,7.66Z"/>
  <circle class="cls-2" cx="31.35" cy="64.14" r="4.73"/>
  <circle class="cls-2" cx="50.77" cy="64.18" r="4.66"/>
  <path class="cls-2" d="M71.08,68.72c-3.15,1.14-5.65-1.98-5.64-4.54.02-3.13,2.56-5.45,5.82-4.67,2.07.49,3.09,2.44,3.23,4.16.16,1.97-.85,4.12-3.41,5.05Z"/>
  <path class="cls-2" d="M28.12,36.23c-2.28.84-4.57-1.18-5.07-2.78-.77-2.5-.08-5.15,2.44-6.07,2.58-.94,4.95.64,5.71,3.01.66,2.06-.21,4.77-3.09,5.84Z"/>
  <path class="cls-1" d="M51.11,36.96c-2.24,2.01-3.24,4.85-6.24,5.22,1.48-3.18,3.98-4.91,6.17-7.4l5.33,4.63,7.83-8.47c.6-.65.96-.92,1.43-1.06.73-.22,1.5,1.11,1.03,1.59l-10.01,10.26-5.54-4.78Z"/>
</svg>