<?xml version="1.0" encoding="UTF-8"?>
<svg id="Layer_1" data-name="Layer 1" xmlns="http://www.w3.org/2000/svg" viewBox="0 0 100 100">
  <defs>
    <style>
      .cls-1 {
        fill: #d0a43e;
      }

      .cls-2 {
        fill: #0b3e78;
      }

      .cls-3 {
        fill: #fdfcfc;
      }
    </style>
  </defs>
  <path class="cls-1" d="M96.78,50c0,25.82-20.94,46.76-46.78,46.76S3.22,75.82,3.22,50,24.16,3.24,50,3.24s46.78,20.93,46.78,46.76ZM95.29,49.99c0-25-20.28-45.27-45.29-45.27S4.7,24.99,4.7,49.99s20.28,45.27,45.29,45.27,45.29-20.27,45.29-45.27Z"/>
  <path class="cls-3" d="M95.29,49.99c0,25-20.28,45.27-45.29,45.27S4.7,74.99,4.7,49.99,24.98,4.72,49.99,4.72s45.29,20.27,45.29,45.27ZM36.05,23.36h-14.64s.02,54.87.02,54.87h14.64s-.02-54.87-.02-54.87ZM38.63,26.73l-.03,51.77h14.2s.03-51.77.03-51.77h-14.2ZM69.21,78.06l11.16-4.36-13.02-45.61c-.28-1-2.33-.76-3.06-.48l-10.52,4.02c-.59.57-.35,2.58-.09,3.46l12.2,41.2c.45,1.53,1.7,2.41,3.33,1.77Z"/>
  <g>
    <path class="cls-2" d="M36.05,23.36l.02,54.87h-14.64s-.02-54.86-.02-54.86h14.64ZM25.25,30.28l-.05,2.04,7.1.18.05-2.04-7.1-.18ZM31.39,70.64c.11-1.39.58-3.37-.26-4.68-.68-1.06-4.02-.92-4.87.09-.98,1.16-.5,3.25-.21,4.69l5.34-.1Z"/>
    <path class="cls-1" d="M31.39,70.64l-5.34.1c-.3-1.44-.77-3.53.21-4.69.85-1.02,4.19-1.16,4.87-.09.84,1.31.37,3.28.26,4.68Z"/>
    <rect class="cls-1" x="27.75" y="27.84" width="2.04" height="7.1" transform="translate(-3.32 59.37) rotate(-88.58)"/>
  </g>
  <g>
    <path class="cls-2" d="M38.63,26.73h14.2s-.03,51.78-.03,51.78h-14.2s.03-51.78.03-51.78ZM49.19,34l-7.6.02v2.28s7.61-.02,7.61-.02v-2.28ZM48.83,69.57l-6.84.04v2.07s6.85-.04,6.85-.04v-2.07Z"/>
    <rect class="cls-1" x="41.6" y="34.01" width="7.6" height="2.28" transform="translate(-.08 .11)"/>
    <rect class="cls-3" x="42" y="69.58" width="6.84" height="2.07" transform="translate(-.37 .24) rotate(-.3)"/>
  </g>
  <g>
    <path class="cls-1" d="M69.21,78.06c-1.63.64-2.88-.24-3.33-1.77l-12.2-41.2c-.26-.89-.5-2.9.09-3.46l10.52-4.02c.73-.28,2.78-.51,3.06.48l13.02,45.61-11.16,4.36ZM65.44,34.57l-7.74,2.52,1.08,3.3,7.74-2.52-1.08-3.3ZM74.49,68.33c-.34-1.74-.77-2.64-1.28-3.06-1.06-.87-5.26.3-5.32,2.04-.03,1,.19,1.95.93,2.95l5.67-1.93Z"/>
    <rect class="cls-3" x="58.03" y="35.74" width="8.14" height="3.47" transform="translate(-8.55 21.07) rotate(-18.04)"/>
    <path class="cls-3" d="M74.49,68.33l-5.67,1.93c-.74-1-.96-1.95-.93-2.95.05-1.74,4.26-2.91,5.32-2.04.51.42.93,1.32,1.28,3.06Z"/>
  </g>
</svg>