<?xml version="1.0" encoding="UTF-8"?>
<svg id="Layer_1" data-name="Layer 1" xmlns="http://www.w3.org/2000/svg" viewBox="0 0 100 100">
  <defs>
    <style>
      .cls-1 {
        fill: #d0a43e;
      }

      .cls-2 {
        fill: #0b3e78;
      }

      .cls-3 {
        fill: #fdfcfc;
      }
    </style>
  </defs>
  <path class="cls-1" d="M96.61,50c0,25.73-20.87,46.59-46.61,46.59S3.39,75.73,3.39,50,24.26,3.41,50,3.41s46.61,20.86,46.61,46.59ZM95.07,49.99c0-24.89-20.18-45.06-45.08-45.06S4.9,25.1,4.9,49.99s20.18,45.06,45.08,45.06,45.08-20.18,45.08-45.06Z"/>
  <path class="cls-3" d="M95.07,49.99c0,24.89-20.18,45.06-45.08,45.06S4.9,74.88,4.9,49.99,25.09,4.92,49.99,4.92s45.08,20.18,45.08,45.06ZM53.19,67.22c3.66-3.23,8.41.7,10.74-4.43,1.13-2.48,3.04-3.71,5.59-4.52,5.53-1.74,1.56-8.46,5.4-12.91,2.13-2.47,2.05-5.73-.25-8.02-3.96-3.95.85-10.67-6.42-12.71-2.19-.61-3.64-2.15-4.39-4.22-1.78-4.9-7-.92-10.87-4.3-2.03-1.78-4.63-1.75-6.55.12-3.35,3.27-8.6-1.05-10.64,3.83-.94,2.25-2.45,3.73-4.87,4.47-7.18,2.22-2.12,8.82-6.15,12.97-2.16,2.22-2.48,5.43-.38,7.86,4.28,4.92-.48,11.48,5.72,13.35,2.14.64,3.7,2.03,4.62,4.05,2.53,5.56,7.4,1,11.18,4.67,1.98,1.93,5.26,1.56,7.26-.21ZM38.75,84.58l6.98-14.42c-.42-.82-1.83-2.44-3.02-2.59-4.76,1.18-8.35-1.08-10.79-5.91l-6.92,16.24,9.05-1.42c1.6,2.92,2.14,6.1,4.7,8.11ZM60.67,84.63l4.56-8.13,8.82,1.29-7.1-16.32c-4.4,9.86-10.76,3.97-13.22,8.38l6.95,14.78Z"/>
  <g>
    <path class="cls-2" d="M53.19,67.22c-2,1.77-5.28,2.13-7.26.21-3.78-3.67-8.65.89-11.18-4.67-.92-2.02-2.48-3.4-4.62-4.05-6.2-1.86-1.44-8.42-5.72-13.35-2.11-2.42-1.78-5.63.38-7.86,4.03-4.14-1.03-10.75,6.15-12.97,2.41-.75,3.92-2.22,4.87-4.47,2.04-4.88,7.29-.56,10.64-3.83,1.93-1.88,4.53-1.9,6.55-.12,3.87,3.39,9.09-.59,10.87,4.3.75,2.07,2.2,3.6,4.39,4.22,7.27,2.03,2.46,8.76,6.42,12.71,2.3,2.29,2.38,5.55.25,8.02-3.84,4.44.12,11.17-5.4,12.91-2.55.8-4.46,2.03-5.59,4.52-2.33,5.13-7.08,1.2-10.74,4.43ZM58.47,57.74c-8.54,4.71-17.67,1.87-24.63-5.1,4.11,8.14,14.8,10.37,22.77,7.33,8.21-3.13,13.23-10.6,12.62-20-.51-7.75-6.25-15.51-14.73-17.37-6.56-1.44-12.89.21-17.89,4.49-4.31,3.7-7.26,9.91-6.42,15.98.51,3.73.27,8.09,4.31,10.05-4.17-7.67-4.56-15.49.33-22.22,4.21-5.81,11.87-9.13,20.16-6.82,6.38,1.78,12.26,7.77,12.91,15.35s-2.29,14.38-9.4,18.31ZM67.14,41.75c0-9.63-7.81-17.45-17.45-17.45s-17.45,7.81-17.45,17.45,7.81,17.45,17.45,17.45,17.45-7.81,17.45-17.45Z"/>
    <path class="cls-2" d="M38.75,84.58c-2.55-2.01-3.09-5.18-4.7-8.11l-9.05,1.42,6.92-16.24c2.44,4.83,6.03,7.09,10.79,5.91,1.2.15,2.6,1.77,3.02,2.59l-6.98,14.42Z"/>
    <path class="cls-2" d="M60.67,84.63l-6.95-14.78c2.46-4.41,8.82,1.48,13.22-8.38l7.1,16.32-8.82-1.29-4.56,8.13Z"/>
    <path class="cls-3" d="M58.47,57.74c7.12-3.92,10.08-10.43,9.4-18.31s-6.52-13.58-12.91-15.35c-8.29-2.31-15.95,1.01-20.16,6.82-4.88,6.74-4.49,14.55-.33,22.22-4.04-1.96-3.8-6.32-4.31-10.05-.83-6.07,2.11-12.28,6.42-15.98,5-4.28,11.33-5.93,17.89-4.49,8.49,1.86,14.23,9.62,14.73,17.37.61,9.4-4.41,16.86-12.62,20-7.96,3.04-18.65.81-22.77-7.33,6.96,6.96,16.09,9.81,24.63,5.1Z"/>
    <path class="cls-1" d="M67.14,41.75c0,9.63-7.81,17.45-17.45,17.45s-17.45-7.81-17.45-17.45,7.81-17.45,17.45-17.45,17.45,7.81,17.45,17.45ZM65.09,41.96c0-8.51-6.9-15.41-15.42-15.41s-15.42,6.9-15.42,15.41,6.9,15.41,15.42,15.41,15.42-6.9,15.42-15.41Z"/>
    <path class="cls-3" d="M65.09,41.96c0,8.51-6.9,15.41-15.42,15.41s-15.42-6.9-15.42-15.41,6.9-15.41,15.42-15.41,15.42,6.9,15.42,15.41ZM49.57,48.27l6.25,2.62-1.1-7.13c1.7-1.72,3.86-2.73,5.18-4.92l-7.02-1.5-3.24-6.47-3.02,6.68-7.44,1.11,4.92,5.61-.71,6.77,6.19-2.79Z"/>
    <path class="cls-1" d="M49.57,48.27l-6.19,2.79.71-6.77-4.92-5.61,7.44-1.11,3.02-6.68,3.24,6.47,7.02,1.5c-1.32,2.19-3.48,3.2-5.18,4.92l1.1,7.13-6.25-2.62Z"/>
  </g>
</svg>