<?xml version="1.0" encoding="UTF-8"?>
<svg id="Layer_1" data-name="Layer 1" xmlns="http://www.w3.org/2000/svg" viewBox="0 0 100 100">
  <defs>
    <style>
      .cls-1 {
        fill: #d0a43e;
      }

      .cls-2 {
        fill: #0b3e78;
      }

      .cls-3 {
        fill: #fdfcfc;
      }
    </style>
  </defs>
  <path class="cls-1" d="M96.92,50c0,25.9-21.01,46.9-46.92,46.9S3.08,75.9,3.08,50,24.08,3.1,50,3.1s46.92,21,46.92,46.9ZM95.43,50.03c0-25.07-20.33-45.4-45.42-45.4S4.6,24.95,4.6,50.03s20.33,45.4,45.42,45.4,45.42-20.32,45.42-45.4Z"/>
  <path class="cls-3" d="M95.43,50.03c0,25.07-20.33,45.4-45.42,45.4S4.6,75.1,4.6,50.03,24.93,4.63,50.01,4.63s45.42,20.32,45.42,45.4ZM44.84,19.66c0-2.25-1.82-4.07-4.07-4.07s-4.07,1.82-4.07,4.07,1.82,4.07,4.07,4.07,4.07-1.82,4.07-4.07ZM67.23,26.99c0-1.57-1.28-2.85-2.85-2.85s-2.85,1.28-2.85,2.85,1.28,2.85,2.85,2.85,2.85-1.28,2.85-2.85ZM54.61,81.08c3.21-.01,4.86-4.28,3.68-6.71l-11.57-23.85c.37-5.17-.59-12.18.53-16.74.39-1.09,3.24-3.93.66-4.54-4.67-1.09-10.62-.94-15.53-.18-1.18.18-1.25,2.55-.79,3.02l1.87,1.91.24,16.52-11.11,22.9c-.76,1.57-1.17,3.7-.5,5.04.52,1.04,1.76,2.75,3.45,2.74l29.06-.12ZM75.19,36c0-1.88-1.53-3.41-3.41-3.41s-3.41,1.53-3.41,3.41,1.53,3.41,3.41,3.41,3.41-1.53,3.41-3.41ZM76.85,75.25l.34-26.45c.37-.75,2.12-1.56,1.86-2.66-.17-.7-.24-2.14-1.58-2.13l-15.64.06c-1.29,0-1.59,1.89-1.43,2.71.12.61,1.16,1.45,1.89,2.06l.02,24.77c0,4.2,2.61,7.28,6.41,7.75,3.59.45,8.07-1.44,8.13-6.11Z"/>
  <path class="cls-2" d="M76.85,75.25c-.06,4.67-4.54,6.55-8.13,6.11-3.8-.47-6.41-3.55-6.41-7.75l-.02-24.77c-.72-.61-1.77-1.45-1.89-2.06-.16-.82.14-2.71,1.43-2.71l15.64-.06c1.34,0,1.41,1.44,1.58,2.13.26,1.1-1.49,1.9-1.86,2.66l-.34,26.45ZM74.86,72.61l-.28-23.47c-.01-1.12.82-1.8,1.69-2.93l-12.82.25c1.08,1.1,1.49,1.94,1.48,3.36l-.08,23.81c-.01,3.34,2.61,5.55,5.64,5.14,2.77-.38,4.41-2.7,4.37-6.16Z"/>
  <circle class="cls-1" cx="40.76" cy="19.66" r="4.07"/>
  <circle class="cls-1" cx="71.78" cy="36" r="3.41"/>
  <circle class="cls-1" cx="64.38" cy="26.99" r="2.85"/>
  <path class="cls-3" d="M74.86,72.61c.04,3.46-1.6,5.78-4.37,6.16-3.03.41-5.65-1.8-5.64-5.14l.08-23.81c0-1.42-.4-2.26-1.48-3.36l12.82-.25c-.87,1.12-1.7,1.81-1.69,2.93l.28,23.47ZM67,70.29c1.09.38,1.85.14,1.93.4.13.42-.06,1.07-.3,1.08l-1.68.06c-1.32.87-.77,3.37.18,4.52s2.8,1.16,4.27.68c1.67-.55,2.18-2.06,2.15-4.07l-.22-16.65-6.8.38c-.73.04-.45,2.52.59,2.56.51.02,1.42-.4,2,1.13-1.24.09-2.73.24-2.88.96-.15.76-.19,2.1.16,2.57s1.84.23,2.32.56c.58.4.17,1.27-.12,1.27s-1.13-.2-1.78.12c-1.06.52-1.03,4,.18,4.42Z"/>
  <path class="cls-1" d="M67,70.29c-1.21-.42-1.24-3.91-.18-4.42.65-.32,1.5-.13,1.78-.12s.69-.87.12-1.27c-.48-.33-1.98-.11-2.32-.56s-.31-1.8-.16-2.57c.14-.72,1.64-.87,2.88-.96-.58-1.53-1.49-1.12-2-1.13-1.04-.04-1.32-2.51-.59-2.56l6.8-.38.22,16.65c.03,2-.48,3.52-2.15,4.07-1.47.48-3.32.46-4.27-.68s-1.5-3.65-.18-4.52l1.68-.06c.25,0,.44-.67.3-1.08-.09-.27-.85-.03-1.93-.4Z"/>
  <g>
    <path class="cls-2" d="M54.61,81.08l-29.06.12c-1.69,0-2.93-1.7-3.45-2.74-.67-1.34-.27-3.47.5-5.04l11.11-22.9-.24-16.52-1.87-1.91c-.46-.47-.39-2.84.79-3.02,4.91-.77,10.86-.92,15.53.18,2.57.6-.27,3.45-.66,4.54-1.12,4.56-.16,11.57-.53,16.74l11.57,23.85c1.18,2.43-.47,6.7-3.68,6.71ZM53.93,78.55c2.57-.03,2.18-3.08,1.45-4.54l-11.29-22.95.11-18.01c.44-.5,1.65-.84,1.96-1.8-4.24-.66-7.53-.35-11.79.09.79.88,1.64,1.52,1.63,2.65l-.06,17.72-11.56,24.05c-.69,1.45.9,3.1,2.32,3.08l27.22-.29Z"/>
    <path class="cls-3" d="M53.93,78.55l-27.22.29c-1.42.02-3.02-1.64-2.32-3.08l11.56-24.05.06-17.72c0-1.13-.84-1.77-1.63-2.65,4.26-.44,7.55-.75,11.79-.09-.31.97-1.52,1.3-1.96,1.8l-.11,18.01,11.29,22.95c.72,1.46,1.12,4.51-1.45,4.54ZM47.51,62.24c-1.42-2.79-5.26,1.24-7.03,1.22-2.04-.02-5.7-3.74-7.66-.92-2.79,4.02-4.62,8.91-6.83,14.17l25.87.57c.79.02,2.95-.63,2.41-1.7l-6.76-13.33Z"/>
    <path class="cls-2" d="M47.51,62.24l6.76,13.33c.54,1.07-1.62,1.72-2.41,1.7l-25.87-.57c2.22-5.25,4.04-10.15,6.83-14.17,1.96-2.83,5.62.89,7.66.92,1.77.02,5.61-4.01,7.03-1.22ZM36.5,69.14c0-.93-.75-1.68-1.68-1.68s-1.68.75-1.68,1.68.75,1.68,1.68,1.68,1.68-.75,1.68-1.68ZM48.35,72.2c0-.87-.71-1.58-1.58-1.58s-1.58.71-1.58,1.58.71,1.58,1.58,1.58,1.58-.71,1.58-1.58Z"/>
    <circle class="cls-3" cx="34.82" cy="69.14" r="1.68"/>
    <circle class="cls-3" cx="46.77" cy="72.2" r="1.58"/>
  </g>
</svg>