<?xml version="1.0" encoding="UTF-8"?>
<svg id="Layer_1" data-name="Layer 1" xmlns="http://www.w3.org/2000/svg" viewBox="0 0 100 100">
  <defs>
    <style>
      .cls-1 {
        fill: #e5e6ea;
      }

      .cls-2 {
        fill: #4a81e9;
      }

      .cls-3 {
        fill: #e1b351;
      }
    </style>
  </defs>
  <path class="cls-1" d="M29.05,42.31c1.02,2.71,3.12,4.34,5.25,5.89,3.74,2.71,6.98,5.82,9.33,9.84,2.28,3.9,4,8.99,4.39,10.58.04.15.2.84.48,1.78.4,1.37.8,2.47,1.1,3.22,1.58-8.21,5.15-15.26,10.66-21.08,3.75-3.96,8.86-5.81,10.78-10.51-3.88.98-6.79,3.07-9.85,5.21-2.16,1.52-3.84,3.49-5.45,5.58-1.52,1.97-3.04,3.78-4.36,5.9-.2.33-.96.43-1.16.22-.66-.7,3.8-5.99,7.91-10.62.43-.44.87-.88,1.3-1.32.38-.32.77-.65,1.15-.97,2.89-2.8,11.05-6.57,12.29-5.71.93.64-1.87,5.82-5.53,8.29-10.63,7.16-16.42,18.75-16.99,31.49-.02.4-.65.57-.93.48-.5-.16-.52-.5-.62-1.1l-1.42-8.36-2.55-7.31c-2.12-6.08-6.17-10.75-11.4-14.41-2.97-2.08-5.41-4.67-6.61-8.04-.08-.22-.24-.64-.05-.88,1-1.28,9.72,4.18,10.23,4.5,2.38,1.5,3.86,2.44,5.61,4.17,2.69,2.65,5.23,6.39,4.59,6.97-.29.26-.9.22-1.15-.15-1.43-2.12-3.09-3.93-4.6-5.99-1.36-1.27-3.07-2.68-5.17-4.04-2.66-1.72-5.17-2.86-7.23-3.62Z"/>
  <path class="cls-2" d="M62.62,84.55c.07-.17.07-.38.05-.61.58-.16,1.08-.53,1.52-1.16,16.83-2.97,24.38-18.01,24.39-34.54-16.79,4.29-28.5,17.72-26.35,34.82-.56.18-1.15.33-1.52.74-2.74-19.12,10.69-33.97,29.47-37.62.97,18.78-7.97,36.57-27.55,38.37Z"/>
  <path class="cls-2" d="M27.9,54.42c-.87.2.47.92.38,2.55-4.82-3.88-10.12-7.1-16.71-8.57-.21,15.42,6.81,30.34,22.48,34.03.46.11.66.44.84.6.22.18.06,1.25-.26,1.19-9.25-1.47-16.68-7.52-20.74-16.01-3.26-6.82-4.39-14.21-4.09-21.99,6.8,1.12,12.98,4.06,18.1,8.19Z"/>
  <path class="cls-3" d="M53.85,29.01l-7.79.06-.16-5.55-5.41-.08-.03-7.73,5.47-.18.05-5.6,7.79-.09.14,5.71,5.36.07.08,7.77-5.39.2-.1,5.42ZM52.34,27.47l.06-5.4,5.41-.08-.11-4.99-5.3-.02-.16-5.58-4.78-.08-.1,5.63-5.38.16v4.85s5.38.11,5.38.11l.13,5.43c1.7.18,3.22.22,4.86-.04Z"/>
  <path class="cls-2" d="M39.5,83.42c1.6-11.32-2.92-21.99-11.6-29-.87.2.47.92.38,2.55,7.61,6.98,11.16,17.1,9.35,27.53.62.05,1.25-.71,1.87-1.08Z"/>
  <path class="cls-1" d="M62.67,83.93c-.32-.17-.5-.52-.44-.87-.56.18-1.15.33-1.52.74-5.32,5.95-14.93,6.28-21.29.28.04-.22.05-.45.09-.67-.62.37-1.25,1.13-1.87,1.08-.01.06-.02.12-.03.17,7.59,7.52,17.67,7.16,25.02-.13.07-.17.07-.38.05-.61Z"/>
  <path class="cls-1" d="M56.89,41.89c0,3.87-3.14,7-7,7s-7-3.13-7-7,3.14-7,7-7,7,3.13,7,7ZM55.27,41.9c0-2.98-2.42-5.39-5.4-5.39s-5.4,2.41-5.4,5.39,2.42,5.39,5.4,5.39,5.4-2.41,5.4-5.39Z"/>
  <path class="cls-3" d="M17.28,43c-.18.61-.59.44-.78.48-.24.05-1-.28-.88-.71,2.87-10.25,10.08-18.79,19.88-23.07.54-.23.75.72.68,1.02-.12.49-.4.6-.99.89-8.7,4.23-15.14,12.01-17.91,21.38Z"/>
  <path class="cls-3" d="M82.84,43.37c-2.85-9.6-9.21-17.55-18.23-21.7-.58-.27-.87-.46-1.01-.92-.09-.3.23-1.27.76-1.04,9.97,4.29,17.35,13.21,20.11,23.48-.31.27-1.53.55-1.64.19Z"/>
  <path class="cls-2" d="M31.34,74.44l.34,1.06c.76,1.01.9,1.99,1.19,3.03-1.92-1.7-3.17-3.9-4.66-6.07l-6.7-9.76c-.29-.43-.46-.83-.16-1.2.27-.34.99-.51,1.34,0l8.33,11.93.32,1.02Z"/>
  <path class="cls-1" d="M32.87,78.53c-.29-1.04-.42-2.03-1.19-3.03l-.34-1.06c.39-.07.59.13.86.52l3.81,5.48c.3.44-.31,1.22-.74,1.4-.83-1.05-2.07-2.08-2.4-3.31Z"/>
  <path class="cls-2" d="M67.77,78.23l.02-2.43c0-.2.01-.52.21-.8l9.24-13.37c.39-.57,1.14-.45,1.41,0,.17.29.11.76-.19,1.19l-10.68,15.41Z"/>
  <path class="cls-1" d="M67.79,75.79l-.02,2.43-2.87,3.88c-.56-.19-.83-.98-.81-1.63.01-.42,2.27-3.72,3.7-4.68Z"/>
</svg>