<?xml version="1.0" encoding="UTF-8"?>
<svg id="Layer_1" data-name="Layer 1" xmlns="http://www.w3.org/2000/svg" viewBox="0 0 100 100">
  <defs>
    <style>
      .cls-1 {
        fill: #e5e6ea;
      }

      .cls-2 {
        fill: #4a81e9;
      }

      .cls-3 {
        fill: #e1b351;
      }
    </style>
  </defs>
  <path class="cls-3" d="M59.34,58.24c-.48.26-.87.69-1.48.9-.39-5.92-3.72-11.12-7.91-15.3-4.21,4.17-6.92,9.04-7.79,14.7-.16,1.01.33,2.12-.3,3.13.24,6.31,3,12.16,8.08,16.13,5.08-4.05,8.48-10.1,8.06-16.54l1.36-.67c.82.56.21,1.37.14,2.18-.55,6.82-3.91,12.82-9.5,17.01-6.29-4.48-9.86-11.63-9.43-19.53-2.48-2.42-5.57-3.62-9.04-4.54-.26,2.84-.27,5.28.34,8.04-.74.26-1.41-.21-1.66-1.04-.35-2.87-.37-5.62.13-8.62,3.78.55,7.14,1.86,10.4,4.33.82-6.46,4.17-12.06,9.18-16.53,4.95,4.22,8.41,10.16,9.42,16.36Z"/>
  <path class="cls-2" d="M68.89,66.08c-.38.11-.89-.01-1.38-.07,1.11-3.21,1.39-6.68.99-10.25l-4.07,1.07c.05-.53.26-.97.46-1.46,1.47-.49,2.96-1.18,4.86-1.22.51,3.31.4,6.48-.16,10.12,4.19-.93,8.06-.85,12.06.25-1.53,6.52-5.27,12.04-11.07,15.28,6.27.93,11.94,1.86,17.76,3.4.33.09.3.94.11,1.13-.14.14-.44.35-.88.24-8.83-2.22-17.68-3.47-26.76-4.05-.41-.03-.41-.85-.17-1.05,1.23-1.07,3.48.26,6.01-.21,6.48-1.22,11-7.19,13.07-13.58-3.71-.92-7.36-.59-10.81.41Z"/>
  <path class="cls-1" d="M75.56,24.21c-.51.01-1.01.54-1.39.73l-7.52-.03c-.4-.19-.91-.66-1.48-.71l-.03-10.7-30.39-.02v10.39s-1.41,1.04-1.41,1.04l-7.52.03c-.35-.41-.59-.87-.71-1.42l8.2-.12.06-11.33,33.33.02.05,11.35,8.55-.02c.14.31.26.59.26.79Z"/>
  <path class="cls-2" d="M33.32,79.29c3.31.7,7.04-1.77,5.91,1.26-9.04.53-18,1.73-26.81,3.97-.55.14-.89-.16-.96-.46-.13-.49.09-.87.68-1.03,5.66-1.48,11.19-2.31,17.27-3.21-5.89-3.35-9.35-8.39-11.03-15.27,3.32-.97,6.64-1.08,10.06-.66.53.06.56,1.48.15,1.52-2.69-.31-5.35-.57-8.13.4,1.8,6.26,6.4,12.1,12.87,13.47Z"/>
  <path class="cls-3" d="M53.39,36.14l-6.77.18-.19-4.79c-1.65.37-3.1.07-4.65-.21l.07-6.76,4.58.04.1-4.79,6.76-.09.2,4.84,4.64-.02-.14,6.91-4.53.18-.08,4.51ZM52.02,34.85c.03-1.93-.24-3.25.13-4.73l4.52-.02v-4.18s-4.63-.08-4.63-.08l-.08-4.77-4.14.03-.06,4.77-4.51.08.02,4.1,4.48.08.13,4.63,4.13.08Z"/>
  <path class="cls-1" d="M24.46,37.32l1.37-.04v.62s-1.42.96-1.42.96l-11.49-.09-.05,37.7c0,.4-1.38.44-1.38-.13l.03-39.04,12.93.03Z"/>
  <path class="cls-2" d="M74.14,87.92c-16.02-2.79-32.26-2.85-48.29,0-.56.1-.82-.18-.91-.48-.11-.38,0-.87.62-.98,16.14-2.92,32.48-2.89,48.63-.1.62.11.78.41.86.79.07.34-.32.88-.91.78Z"/>
  <path class="cls-1" d="M75.59,38.85c-.6-.46-.08-1.1-.08-1.55l13,.03-.03,38.99c0,.52-1.34.55-1.34.14l-.04-37.68-11.51.07Z"/>
  <path class="cls-2" d="M75.56,24.21l-.05,13.1c0,.45-.52,1.09.08,1.55l-.02,20.7c0,.68-.32.98-.81.93-.35-.04-.65-.4-.65-.95l.06-34.6c.38-.19.88-.71,1.39-.73Z"/>
  <path class="cls-2" d="M66.65,24.91v25.38c-.01.7-.35.99-.82.94-.36-.04-.67-.41-.67-.93v-26.09c.58.05,1.09.52,1.49.71Z"/>
  <path class="cls-2" d="M33.34,24.9l1.4-1.04.04,26.42c0,.55-.28.88-.63.96-.25.06-.84-.13-.84-.65l.02-25.7Z"/>
  <path class="cls-2" d="M24.4,38.86l1.41-.96.05,21.66c0,.54-.28.88-.65.92-.49.05-.81-.23-.81-.92v-20.7Z"/>
  <path class="cls-3" d="M35.26,73.62c.41-.36.78-.55,1.32-.7,2.66,2.57,5.64,4.37,9.29,5.02.44.08.77.61.64.85-.83,1.63-7.91-1.19-11.25-5.17Z"/>
  <path class="cls-2" d="M32.07,74.42c-2.04-.49-3.48-1.61-5.03-2.73l-3.78-2.73c-.9-.65-1.99-1.21-1.86-2.75l9.94,6.33c.57.36,1.02,1.06.73,1.88Z"/>
  <path class="cls-3" d="M63.92,74.38c-1.06.94-1.93,2.03-3.39,2.75-2.62,1.3-6.56,3.06-6.94,1.84-.06-.2,0-.89.32-.95,3.52-.74,6.71-2.34,9.27-4.81.55.19.77.65.75,1.17Z"/>
  <path class="cls-2" d="M25.11,23.51c.12.55.35,1.01.71,1.42v12.34s-1.37.04-1.37.04l-.04-13.1c0-.29.12-.5.22-.57s.35-.14.47-.15Z"/>
  <path class="cls-2" d="M36.58,72.92c-.54.15-.91.34-1.32.7-1.6-1.91-3.57-4.23-2.43-5.66.49-.61,1.84,3.11,3.75,4.97Z"/>
  <path class="cls-3" d="M68.89,66.08c-.13,1.83-1.16,3.42-2.13,4.86-.6-.34-.87-.86-.82-1.47l1.56-3.45c.49.05,1.01.18,1.38.07Z"/>
  <path class="cls-3" d="M64.89,55.37c-.2.49-.41.94-.46,1.46l-3.98,2.28.35-1.64c1.18-1.11,2.62-1.61,4.1-2.1Z"/>
  <path class="cls-3" d="M66.77,70.94c-.84,1.26-1.71,2.43-2.85,3.44.02-.53-.2-.98-.75-1.17,1.06-1.02,2.16-2.37,2.77-3.74-.05.61.22,1.13.82,1.47Z"/>
  <path class="cls-3" d="M60.79,57.47l-.35,1.64-1.08,1.49-1.36.67-.14-2.12c.61-.21.99-.65,1.48-.9l1.45-.77Z"/>
</svg>