<?xml version="1.0" encoding="UTF-8"?>
<svg id="Layer_1" data-name="Layer 1" xmlns="http://www.w3.org/2000/svg" viewBox="0 0 100 100">
  <defs>
    <style>
      .cls-1 {
        fill: #e5e6ea;
      }

      .cls-2 {
        fill: #4a81e9;
      }

      .cls-3 {
        fill: #e1b351;
      }
    </style>
  </defs>
  <path class="cls-1" d="M44.73,12.83c-11.41,1.47-20.88,7.95-26.85,17.29-10.09,15.77-7.24,36.52,6.98,48.71.3.26.6.35.61.75,0,.32-.19.77-.56.95-.31.15-.71-.04-1.1-.37-12.54-10.75-16.95-28.3-10.93-43.72,4.26-10.9,12.79-19.52,23.84-23.39,13.89-4.86,28.98-1.28,39.12,9.32,6.44,6.74,10.2,15.35,10.91,24.64.05.62.16.81-.18,1.21-.28.33-1.29.36-1.33-.19-.56-6.8-2.43-13.19-6.16-18.96-7.38-11.43-20.54-18.01-34.35-16.23Z"/>
  <path class="cls-2" d="M46.29,52.15c.08-7-5.33-11.14-11.76-11.22-6.23-.08-11.72,3.77-11.73,10.38v8.17c0,.73.7,1.24,1.34,1.54l.07,11.47c0,.61-.41.87-.79.88-.42.01-.85-.33-.86-.9l-.17-10.5c-.59-.78-1.34-1.56-1.32-2.86l.15-8.88c.59-6.9,6.36-10.87,12.99-10.99s12.73,3.77,13.53,10.7l.16,10.47-1.45,1.8.02,5.82c0,.5-.21.78-.41,1.05-.18.25-1.14.39-1.14.02l-.08-7.9c.38-.42,1.27-.8,1.35-1.42l.09-7.66Z"/>
  <path class="cls-3" d="M35.92,79.84l-7.26,3.86c-.51.27-.96-.68-.84-1,.19-.51.66-.61,1.21-.91,10.82-5.81,20.96-12.42,31.21-19.43l7.28,7.21,15.8-12.75c.39-.32.79-.4,1.09-.37.32.03.86.9.44,1.23l-17.55,13.97-7.28-7.23-24.11,15.42Z"/>
  <path class="cls-2" d="M73.23,47.6c-.45-5.47-5.3-9.04-10.53-8.44-5.56-.71-10.28,3.12-10.67,8.7l.07,7.45c.16.48.86.86,1.25,1.21l-.09,7.67c0,.45-1.37.49-1.38,0l-.18-6.41c-.02-.61-.87-1.07-1.25-1.53l-.03-8.79c.49-6.29,5.97-10.69,12.26-9.85,6.24-.74,11.64,3.45,12.14,9.68l.05,8.31-1.17,1.82-.07,4.07c0,.43-.35.58-.51.7-.25.19-1.01.07-.99-.43.08-1.82-.33-3.75.19-5.53.2-.69,1.03-1.1,1.01-2.27l-.1-6.38Z"/>
  <path class="cls-1" d="M50.57,88.98c-6.34.48-12.11-.77-17.73-3.09-.34-.14-.27-.79-.09-.94s.75-.57,1.09-.43c17.72,7.36,37.99-.03,46.98-16.97.23-.43.55-.77.89-.83.3-.06,1.24.31,1.07.64-6.16,12.45-18.16,20.54-32.21,21.62Z"/>
  <path class="cls-1" d="M40.63,31.49c0,3.37-2.74,6.11-6.11,6.11s-6.11-2.73-6.11-6.11,2.74-6.11,6.11-6.11,6.11,2.73,6.11,6.11ZM39.05,31.5c0-2.49-2.02-4.52-4.52-4.52s-4.52,2.02-4.52,4.52,2.02,4.52,4.52,4.52,4.52-2.02,4.52-4.52Z"/>
  <path class="cls-1" d="M62.31,35.87c-3.26-.19-5.41-2.91-5.5-5.72-.1-3.08,2.19-5.75,5.43-6.03s6.14,2.53,6.2,5.7-2.54,6.25-6.13,6.04ZM66.96,29.99c0-2.39-1.94-4.32-4.32-4.32s-4.32,1.93-4.32,4.32,1.94,4.32,4.32,4.32,4.32-1.93,4.32-4.32Z"/>
  <path class="cls-3" d="M35.75,57.62c-.79.25-1.63.25-2.54.06l-.05-4.11c-1.35-.34-2.58-.15-3.93-.09-.24-.74-.24-1.43-.1-2.33l4.04-.17.08-4.05c.82-.15,1.51-.15,2.46-.05l.15,4.08,3.96.13c.08.82.08,1.49-.06,2.26l-3.96.2-.05,4.07Z"/>
  <path class="cls-3" d="M85.55,62.46l2.11-8.35-8.17,1.47c-.64.12-.99-.26-1.01-.73-.02-.55.3-.8.91-.91l10.39-1.88-2.79,10.82c-.12.48-1.57.08-1.44-.41Z"/>
  <path class="cls-2" d="M46.37,80.72c-.53.25-.87-.58-.82-.83.09-.46.43-.62.93-.93l12.82-7.98c.4-.25.93.42.91.72-.03.41-.31.71-.75,1.01-4.23,2.86-8.28,5.71-13.07,8.01Z"/>
</svg>