<?xml version="1.0" encoding="UTF-8"?>
<svg id="Layer_1" data-name="Layer 1" xmlns="http://www.w3.org/2000/svg" viewBox="0 0 100 100">
  <defs>
    <style>
      .cls-1 {
        fill: #e5e6ea;
      }

      .cls-2 {
        fill: #4a81e9;
      }

      .cls-3 {
        fill: #e1b351;
      }
    </style>
  </defs>
  <path class="cls-2" d="M64.47,37.23c-1.76,1.34-4.51,2.85-5.2,2.39-.25-.17-.53-1-.15-1.21l3.6-2.01-.02-7.88-12.81,5.55-12.71-5.62-.04,8.01,3.47,1.73c.42.21.47.73.32,1.11-.14.36-.6.7-1.19.4l-4.31-2.2-.04-9.8-9.04-4.1c-.26-.12-.55-.33-.66-.46s-.01-.7.18-.79l24.11-10.68,23.34,10.29c.43.19.75.32.85.65.12.43-.08.87-.59,1.07l-3.73,1.48c-.74.29-1.62-.11-1.73-1.05.86-.47,1.76-.65,2.49-1.38l-20.63-9.17-20.85,9.24,20.79,9.37,10.88-4.71c1.23-.81,2.86-.7,3.67.44l-.02,9.32Z"/>
  <path class="cls-3" d="M65.57,43.4l.88-5.93c.2-1.37-.22-1.71.48-2.99.77-1.42.05-3.89.27-5.56.2-1.51-.76-2.37-2.1-2.63l-15.24-2.87c-.5-.09-.51-.55-.48-.82.03-.35.42-.65.92-.55l16.07,3.15c.7.14,1.85,1.38,1.88,2.03l.3,7.41.79,1.05-.52,1.49c.38,2.12,1.35,4.02,1.16,6.24l-4.4-.02ZM68.6,42.05c-.38-1.34-.28-2.31-.97-3.38l-.66,3.37c.51.17,1.1.19,1.63,0Z"/>
  <path class="cls-1" d="M85.02,73.05c-5.39-.02-10.28.13-15.29,1.27-7.25,1.58-13.87,4.51-19.61,9.44-5.28-4.36-11.33-7.28-17.97-9.08-5.68-1.34-11.23-1.82-17.12-1.59l.04-15.57c7.5.67,14.5,2.52,21.06,5.95.09-2.47-.22-4.41.42-6.51,1.17-3.84,4.74-6.46,8.7-6.92,3.69,2.93,5.92,2.93,9.62-.02,4.24.51,7.92,3.63,8.83,7.81l.25,5.61c6.66-3.45,13.6-5.28,20.95-5.85l.11,15.46ZM62.26,64.4v-5.74c-.51-2.98-3.62-7.08-6.98-6.56-1.92.3-4.44,4.05-10.29-.27-4.2.3-7.34,4.05-7.24,8.25v4.3c4.88,2.93,9.08,6.55,12.29,11.76,2.98-4.94,7.09-8.74,12.22-11.73ZM48.85,80.76c.27-.96.6-2.14.18-2.96-2.25-4.41-5.78-7.61-9.79-10.51-6.75-4.5-14.45-7.03-22.61-7.86l.05,11.99c6.96-.19,13.58.67,20.06,2.9,4.4,1.65,8.43,3.52,12.12,6.44ZM83.33,71.38v-12c-6.72.73-12.84,2.5-18.64,5.53-5.58,3.02-10.38,7.04-13.53,12.56-.52.91-.25,2.2-.13,3.33,9.63-7.01,20.55-9.63,32.3-9.41Z"/>
  <path class="cls-2" d="M87.77,67.44c-.18-.52-.78-.64-.94-.83-.23-.28-.18-1.16.16-1.26.86-.26,1.6-.33,2.42-.06l-.04,15.08c-13.99-2.62-28.39-1.31-39.34,7.95-11.13-9.28-25.2-10.5-39.36-7.97l-.06-14.64c0-.85,2.67-.82,2.82.05.11.62-.18,1.13-1.05,1.35l-.06,11.26c13.32-2.23,27.4-.59,37.8,7.67,10.2-8.38,24.96-9.86,37.67-7.69v-10.91Z"/>
  <path class="cls-1" d="M56.7,42.72c0,3.7-3,6.69-6.7,6.69s-6.7-3-6.7-6.69,3-6.69,6.7-6.69,6.7,3,6.7,6.69ZM55.11,42.72c0-2.81-2.28-5.08-5.08-5.08s-5.08,2.27-5.08,5.08,2.28,5.08,5.08,5.08,5.08-2.27,5.08-5.08Z"/>
</svg>