<?xml version="1.0" encoding="UTF-8"?>
<svg id="Layer_1" data-name="Layer 1" xmlns="http://www.w3.org/2000/svg" viewBox="0 0 100 100">
  <defs>
    <style>
      .cls-1 {
        fill: #e5e6ea;
      }

      .cls-2 {
        fill: #4a81e9;
      }

      .cls-3 {
        fill: #e1b351;
      }
    </style>
  </defs>
  <path class="cls-2" d="M87.22,62.28c-2.32,18.97-15.44,27.18-34.16,27.02,1.2-12.93,9.52-23.58,22.25-26.24,3.93-.82,7.64-1.03,11.9-.77ZM85.28,63.93c-8.03-.36-15.65,1.58-21.67,6.96-4.28,4.06-7.05,9.25-8.31,15.16.68-.24,1.25-.45,1.53.06.16.28.09.73-.03,1.48,15.08-.98,25.76-8.12,28.48-23.65Z"/>
  <path class="cls-2" d="M46.88,89.17c-18.12.73-32.13-8.09-34.1-26.89,12.76-.83,23.69,3.05,30.1,14.27,2.11,3.82,3.41,7.69,4,12.63ZM44.56,85.8c-3.54-14.88-14.66-22.44-29.87-21.92,2.59,15.32,13.01,22.61,28.14,23.68-.04-.66-.42-1.13-.29-1.48.1-.27.55-.72.88-.58.21.09.68.63,1.14.29Z"/>
  <path class="cls-2" d="M73.54,31.41c-7.77,9.8-20.49,15.08-32.58,10.63-5.86-2.15-10.77-5.83-14.67-10.65-.35-.43-.3-.8-.06-1.15.18-.27.72-.57,1.07-.19,7.47,8.21,18.27,13.83,29.32,10.52,6.12-1.83,11.36-5.43,15.59-10.18.42-.47.85-.65,1.24-.34.44.34.49.85.09,1.35Z"/>
  <path class="cls-2" d="M55.15,73.97c.2.72.1,1.2-.15,1.5-.21.24-1.18.3-1.3-.1-3.64-11.33-1.44-23.29,7.01-31.76.37-.37.93-.24,1.2-.02s.49.85.07,1.3c-7.2,7.86-9.65,18.61-6.82,29.07Z"/>
  <path class="cls-2" d="M44.54,74.68c2.69-11.09,1.03-21.56-6.84-29.99-.44-.47.09-1.22.53-1.34.5-.14.85.04,1.29.55,8.2,9.33,9.96,18.96,6.78,30.97-.16.59-.53.85-1.02.82-.34-.02-.88-.44-.75-1.01Z"/>
  <path class="cls-1" d="M56.92,30.56c0,3.86-3.13,6.99-6.99,6.99s-6.99-3.13-6.99-6.99,3.13-6.99,6.99-6.99,6.99,3.13,6.99,6.99ZM55.26,30.54c0-2.94-2.39-5.33-5.33-5.33s-5.33,2.39-5.33,5.33,2.39,5.33,5.33,5.33,5.33-2.39,5.33-5.33Z"/>
  <path class="cls-2" d="M86.09,57.55c-.18.79-1.62.62-1.87-.11,1.63-7.59.7-15.36-2.48-22.43-.32-.7-.13-1.18.37-1.42.84-.4,1.19.08,1.51.87,3.02,7.31,4.24,15.14,2.46,23.09Z"/>
  <path class="cls-2" d="M15.56,56.61c.2,1.02-.14,1.45-.82,1.46-.6,0-.91-.23-1.05-.99-1.45-8.08-.51-16.29,3.21-23.59.16-.32.81-.13.98.04.25.25.64.74.38,1.29-3.12,6.79-4.16,14.24-2.7,21.8Z"/>
  <path class="cls-3" d="M49.72,10.72c.83-.15,1.34.43,1.41,1.06s-.27,1.37-.89,1.57-1.31-.37-1.47-.82c-.27-.77.05-1.65.94-1.81Z"/>
  <path class="cls-3" d="M38,12.88c.81-.31,1.42.44,1.48.96.08.74-.2,1.33-.92,1.56-.58.19-1.25-.24-1.45-.81s.08-1.41.88-1.71Z"/>
  <circle class="cls-3" cx="44.03" cy="12.54" r="1.27"/>
  <circle class="cls-3" cx="79.45" cy="28.68" r="1.26"/>
  <circle class="cls-3" cx="55.84" cy="12.48" r="1.26"/>
  <circle class="cls-3" cx="61.58" cy="14.05" r="1.25"/>
  <circle class="cls-3" cx="75.87" cy="24.02" r="1.28"/>
  <circle class="cls-3" cx="66.86" cy="16.65" r="1.25"/>
  <circle class="cls-3" cx="20.46" cy="28.67" r="1.26"/>
  <circle class="cls-3" cx="32.99" cy="16.65" r="1.25"/>
  <circle class="cls-3" cx="71.75" cy="20.01" r="1.24"/>
  <path class="cls-3" d="M23.98,22.74c.77-.13,1.11.63,1.15,1.09.08.76-.33,1.33-.85,1.39-.86.1-1.37-.23-1.48-.85-.14-.77.34-1.5,1.18-1.63Z"/>
  <circle class="cls-3" cx="28.14" cy="19.9" r="1.23"/>
  <path class="cls-1" d="M60.56,84.75c-.68.47-1.2.43-1.51-.11-.18-.31-.17-.85.35-1.2,5.42-3.71,10.59-7.54,15.41-12.01.38-.35.89-.5,1.14-.31.5.37.46,1.01,0,1.46-4.71,4.56-9.89,8.32-15.38,12.17Z"/>
  <path class="cls-1" d="M39.52,84.88c-5.58-3.9-10.84-7.71-15.61-12.32-.41-.39-.49-.87-.2-1.22.33-.4.87-.41,1.36.05,4.7,4.46,9.84,8.21,15.22,11.85.52.35.83.7.65,1.2-.15.41-.74.92-1.42.45Z"/>
</svg>