<?xml version="1.0" encoding="UTF-8"?>
<svg id="Layer_1" data-name="Layer 1" xmlns="http://www.w3.org/2000/svg" viewBox="0 0 100 100">
  <defs>
    <style>
      .cls-1 {
        fill: #e5e6ea;
      }

      .cls-2 {
        fill: #4a81e9;
      }

      .cls-3 {
        fill: #e1b351;
      }
    </style>
  </defs>
  <path class="cls-2" d="M50.55,42.46c-.21.53-.7.51-1.03.44s-.62-.29-.7-.76l.07-8.8c-5.38-.13-10.51-.69-15.86-2.09-1.64,5.68-2.37,11.37-2.1,17.24.02.47-.12.8-.37,1.05-.31.32-.78.05-1.26.04l-13.21-.07c0,5.7,1.66,10.93,4.18,15.91.2.46-.25.82-.49.82-.29,0-.89.05-1.29-.14-4.12-8.04-5.43-17.27-3.17-26.1,3.78-14.81,16.31-25.48,31.51-26.68,12.74-1,24.64,4.59,31.87,15.07,3.62,5.25,5.6,11.3,6.19,17.7.05.57-.19.93-.32,1.18s-1.24.44-1.36.15c-.45-7.17-2.87-14-7.32-19.69l-7.91,3c1.61,4.86,3.09,18.24,1.63,18.96-.31.16-1.22-.21-1.21-.75.1-5.93-.45-11.69-2.04-17.73-5.17,1.38-10.3,2.06-15.77,2.1l-.05,9.14ZM65.85,29.6c-1.19-3.52-2.63-6.4-4.77-8.98-2.72-3.2-6.38-5.38-10.52-5.6l.02,16.63c5.29-.17,10.18-.63,15.27-2.05ZM48.86,31.59l-.06-16.56c-4.03.17-7.17,2.1-9.78,4.75-2.5,2.86-4.36,6.13-5.38,9.86,5.14,1.23,9.86,1.95,15.22,1.95ZM59.49,16.29c-.29-.08-.42.28-.11.37l.11-.37ZM31.99,29c1.56-5.23,4.13-9,7.88-12.47-6.11,1.72-11.12,5.02-15.29,9.73,2.57,1.15,4.88,2.25,7.4,2.74ZM59.8,16.54l-.07.31c3.8,3.15,6.13,7.43,7.73,12.24l7.34-2.82c-4.21-4.66-9.3-8.05-15-9.73ZM29.15,47.79c-.15-6.11.71-11.48,2.16-17.07l-7.86-3.15c-4.54,5.92-7.22,12.86-7.38,20.27l13.08-.06Z"/>
  <path class="cls-1" d="M50.89,85.36c-.04.84-.25,1.35-.81,1.42-.47.07-.95-.28-1.01-.93l-.73-7.41c-.04-.37.42-.84.64-.96.33-.19.76.43.99.71,2.33-12.68,9.31-24.02,22.17-26.29.58-.1.82-.04,1.15.25.25.22.36,1.19-.17,1.27-3.25.54-6.23,1.54-8.96,3.45-8.8,6.15-12.77,17.66-13.26,28.49Z"/>
  <path class="cls-2" d="M55.01,85.84c-.72-.03-.25-1.69.63-1.83,6.58-.99,12.65-3.9,17.55-8.5s7.86-10.56,9.42-16.98l.59-.66c.21-.24,1.28-.17,1.2.3-2.5,14.66-14.31,26.05-29.38,27.67Z"/>
  <path class="cls-3" d="M39.99,69.66c.36-.06.53,1.06.28,1.25-.26.2-.51.31-1.07.4-8.92,1.38-21.44,2.29-28.87-2.36-2.61-1.64-4.45-4.14-4.07-7.29.36-2.96,2.93-7.12,4.13-6.37.37.23.45.76.15,1.22l-2.16,3.3c-1.29,2.79-.26,5.47,2.14,7.24,6.9,5.07,20.59,4.07,29.47,2.61Z"/>
  <path class="cls-3" d="M73.57,58.91l11.13-6.87c3.86-2.38,9.64-9.18,6.55-13.52-1.31-1.84-3.21-2.91-5.24-3.73-.52-.21-.26-1.57.12-1.5,1.95.34,3.7,1.48,5.15,2.75,2.28,2.01,3.05,5.02,2.1,7.92-2.06,6.32-9.49,10.78-15.22,14.19-1.46.87-3.04,1.41-4.59.76Z"/>
  <path class="cls-1" d="M47.18,73.97c-3-9.46-9.75-19.02-19.83-20.38-.68-.09-1.04-.47-.96-1.04.07-.52.51-.82,1.13-.72,10.21,1.65,17.49,10.22,20.54,19.72.26.82.14,1.97-.88,2.42Z"/>
  <path class="cls-1" d="M48.97,58.87c-3.26-.51-5.06-3.19-5.13-6.06s1.85-5.52,4.84-6.1c3.81-.75,7.12,2.09,7.32,5.76s-2.98,7.03-7.03,6.4ZM54.46,52.75c0-2.52-2.04-4.56-4.56-4.56s-4.56,2.04-4.56,4.56,2.04,4.56,4.56,4.56,4.56-2.04,4.56-4.56Z"/>
  <path class="cls-2" d="M45.79,84.02c.48.34.31,1.78-.11,1.75-7.85-.65-14.95-4.52-20.48-10.06.31-.8,1.02-.71,1.54-.69.58.03.85.43,1.34.85,5.06,4.44,10.94,7.29,17.71,8.15Z"/>
  <path class="cls-1" d="M56.02,81.94c-.42.17-.84-.07-.99-.27-.16-.21-.44-.85-.18-1.2,4.42-5.9,10.12-10.52,16.81-13.68.57-.27,1.05.01,1.16.49.1.42-.12.75-.67,1.01-6.54,3.1-12.07,7.71-16.13,13.64Z"/>
  <path class="cls-3" d="M69.56,62.11l-4.82,2.18c-.37.17-.73.19-1,.1-.29-.09-.66-.59-.57-1.12l6.03-2.34c.19-.07.63-.06.81-.06.13,0,.23.33.17.46-.07.19-.2.59-.63.78Z"/>
</svg>