<?xml version="1.0" encoding="UTF-8"?>
<svg id="Layer_1" data-name="Layer 1" xmlns="http://www.w3.org/2000/svg" viewBox="0 0 100 100">
  <defs>
    <style>
      .cls-1 {
        fill: #e5e6ea;
      }

      .cls-2 {
        fill: #4a81e9;
      }

      .cls-3 {
        fill: #e1b351;
      }
    </style>
  </defs>
  <path class="cls-1" d="M31.06,71.28c2.89-2.92,9.63-4.12,11.84-12.21.13-.48.36-.73.74-.75.53-.03.91.33.75,1.01-1.08,4.52-4.07,7.89-8.06,10.26,2.16.29,3.68.47,5.33,1.3l5.2,2.61c5.58,3.51,12.92,8.03,19.16,6.11,2-.62,3.35-2.33,3.23-4.27s-1.46-3.6-3.5-4.05l-4.31-.13c-.29,0-.45-1.1-.18-1.23l2.31-.48c-5.48-3.58-9-8.34-8.38-15.39l-2.56.38c-.16-.02-.07-.36.02-.49.16-.24.48-.27.78-.27,2.89.03,1.33-3.24,2.36-5.35.1-.21.8-.12.9.09.11.22.35.61.32,1.02l-.49,6.49c.21,5.01,3.09,8.99,7.13,11.76l5.25,3.6c1.6,1.09,2.05,3.35,1.78,5.21-.25,1.75-1.52,3.41-3.36,4.27-5.56,2.62-12.91-.73-18.13-4.17-4.29-2.83-11.52-6.69-15.76-5.03-1.64.64-2.65,2.22-2.75,3.78s.91,3.23,2.47,3.97c4.05,1.91,9.09.16,13.22-1.9.47-.23.79-.06.99.2.29.38.31.89-.24,1.18-2.29,1.21-4.66,2.06-7.21,2.63-5,1.12-10.28-.85-10.73-5.14-.22-2.05.46-3.6,1.86-5.01Z"/>
  <path class="cls-2" d="M77.38,25.64c-9.6-11.76-25.41-15.7-39.5-10.72-14.83,5.23-24.26,19.81-23.03,35.51.05.62-.29.91-.73.9-.6,0-.69-.24-.74-.93-1.02-12.77,4.59-25.03,15.14-32.43,12.28-8.62,28.92-9.13,41.58-1.01,11.6,7.44,17.84,20.68,16.43,34.23-.03.32-1.43.16-1.4-.23.66-9.06-1.81-18.05-7.75-25.33Z"/>
  <path class="cls-1" d="M53.7,41c-2.79-.8-5.74-.72-8.33.31-5.87,2.35-3.73,9.54-5.44,15.32-1.23,4.16-3.94,8-7.58,10.43l-5.53,2.13c.62.48,1.18.32,1.5.33.35.01.68.82.2,1.08-1.04.57-2.91.18-3.82-.64-.44-.4-.27-.97-.04-1.16.28-.23.83-.49,1.36-.37,1.53-1.36,3.21-2.04,5.29-2.29,6.41-5.15,7.87-9.79,8.09-17.76.12-4.23,2.42-7.67,6.5-8.87,2.46-.72,5.18-.8,7.68-.17,4.18,1.05,6.76,4.43,6.91,8.69.29,8.01,1.64,12.8,7.99,18.01,2.14.26,3.79,1.24,5.61,2.3.54-.01,1.07.27,1.21.56.22.43.16.99-.37,1.36-.87.62-2.75.85-3.4-.03-.33-.45.72-.98,1.3-.97l-4.99-2.07c-3.5-2.26-6.13-5.92-7.5-9.81-2.35-6.67.53-14.34-6.64-16.39Z"/>
  <path class="cls-2" d="M80.42,76.92c.51-.41,1.12-.32,1.32-.02.31.47.13,1.06-.4,1.48-17.73,13.97-45.07,13.92-62.88-.14-.47-.37-.45-.97-.21-1.33.18-.26.84-.39,1.25-.06,12.98,10.36,30.64,12.78,46.45,7.79,5.35-1.69,10.06-4.14,14.48-7.72Z"/>
  <path class="cls-3" d="M29.91,60.66c-4.87-3.69-11-4.81-17.16-3.81,1.48,5.4,4.18,10.04,8.21,13.69.29.26.67.32.69.72s-.16.75-.54.91c-.35.15-.76,0-1.13-.34-4.66-4.3-7.61-9.84-9.01-16.09,5.47-1.26,10.84-.85,16.22,1.45-1.56-5.35-1.9-10.35-.24-15.44,3.07.67,5.59,2.09,8.07,3.78.37.14.66.4.73.68.08.32-.05.61-.33.83-.85.69-3.8-2.67-7.43-3.51-1.09,4.81-.77,9.58,1.07,14.02.77,1.86,2.66,1.87,2.19,2.85-.21.44-.74.74-1.35.27Z"/>
  <path class="cls-3" d="M87.2,56.85c-6.01-1.11-12.03.19-16.84,3.61-.36.25-.56.5-.91.45-.37-.05-.72-.37-.77-.76-.11-.99,1.64-.86,2.4-2.77,1.76-4.44,1.95-9.09.88-13.84-2.42.8-4.56,1.86-6.46,3.49-.37.32-.89.09-1.12-.17-.3-.34-.15-.94.36-1.22,2.56-1.73,5.09-3.28,8.23-3.89,1.49,5.11,1.34,10.1-.2,15.46,5.43-2.29,10.8-2.83,16.24-1.54-1.41,6.37-4.26,11.86-9.11,16.07-.31.45-.67.46-1.03.38-.39-.09-.88-.79-.42-1.18,4.31-3.62,7.26-8.43,8.73-14.11Z"/>
  <path class="cls-1" d="M56.54,29.6c0,3.6-2.92,6.53-6.53,6.53s-6.53-2.92-6.53-6.53,2.92-6.53,6.53-6.53,6.53,2.92,6.53,6.53ZM55.03,29.6c0-2.77-2.24-5.01-5.01-5.01s-5.01,2.24-5.01,5.01,2.24,5.01,5.01,5.01,5.01-2.24,5.01-5.01Z"/>
  <path class="cls-1" d="M45.48,70.94c3.19-.59,4.72,3.06,8.82,1.38l4.15-1.7c.52-.21,1.13-.09,1.29.4.14.43-.18.9-.73,1.1l-5.7,2.06c-2.92.49-5.64-1.21-7.83-3.24Z"/>
</svg>