<?xml version="1.0" encoding="UTF-8"?>
<svg id="Layer_1" data-name="Layer 1" xmlns="http://www.w3.org/2000/svg" viewBox="0 0 100 100">
  <defs>
    <style>
      .cls-1 {
        fill: #e5e6ea;
      }

      .cls-2 {
        fill: #4a81e9;
      }

      .cls-3 {
        fill: #e1b351;
      }
    </style>
  </defs>
  <path class="cls-2" d="M49.21,11.72L12.76,34.12l.03,39.91,11.94,7.07c.45.19.78.59.71.98-.08.45-.54.84-1.17.77l-13.11-7.72-.03-42.05L49.19,9.7l38.27,23.26.04,35.19c.09.79-.43,1.16-.97,1.08-.59-.08-.95-.55-.73-1.34v-33.91S49.21,11.72,49.21,11.72Z"/>
  <path class="cls-1" d="M54.62,38.44l-1-.02c-.29,0-.52-.41-.56-.83l2.72-4.85-2.49-1.68,3.39-5.3c.89.32,2.13.76,2.64-.52l-8.08-4.39c-.12,1.45.77,1.65,1.23,2.49l-3.04,5.1c-.31.52-1.73-.38-2.47-1.01l-13.28,24.19,9.12,5.32,3.11-5.74c.41-.76,1.05-1.19,1.8-1.24.09.05.38.08.51.05l-3.68,7.11c-.23.45-.2,1.55-.97,1.69-.62.11-1.44-.79-2.21-.91-.74,1.09-1.09,2.29-2.12,3.2l-7.16-4.09,1.8-3.38c-.86-.53-1.55-.79-2.18-1.53l14.38-26.48c1.07.17,1.64.72,2.54,1.12l2.15-3.76-1.14-1.43c.27-1.07.76-2.01,1.66-2.68l9.61,5.61c.07,1.08-.77,2.49-1.69,2.78-.34.08-1.29-.6-1.61-.07l-2.05,3.41,2.23,1.45-3.15,6.41ZM35.25,54.29l-1.26,2.2,4.88,2.79,1.26-2.2-4.88-2.79Z"/>
  <path class="cls-1" d="M30.93,85.04c-2.08,0-3.5,1.68-3.56,3.75l39.72.04c.47,0,.7.16.84.28.18.16.15,1.05-.25,1.05l-41.76.13c-.68-3.53,1.59-6.69,5.16-6.8l6.39-.2c-4.71-2.6-8.32-6.72-9.96-11.91.1-.42,1.3-.73,1.61-.45,1.83,6.09,6.73,10.68,12.92,12.59l11.64-.23c1.92-.04,3.72-1.24,5.57-.4-.59.08-1.14-.09-1.49.5l3.62.25c.3.02.17,1.31-.22,1.31l-30.22.08Z"/>
  <path class="cls-2" d="M88.87,73.39c-2.96,9.61-11.95,14.95-21.55,11.72,2.49-9.94,11.77-14.82,21.55-11.72ZM86.78,74.54c-7.61-2.04-15.02,2.14-17.48,9.55,7.99,1.83,14.32-2.48,17.48-9.55Z"/>
  <path class="cls-3" d="M66.79,76.53l-2.21,5.17c-7.38-2.91-10.31-10.18-8.08-17.9,6.1,1.57,10.02,6.76,10.3,12.74ZM64.73,80.42c1.62-6.25-1.27-12.45-7.19-14.66-1.05,4.59.25,9.15,3.67,12.16l3.52,2.5Z"/>
  <path class="cls-3" d="M69.8,74.13l-1.19-1.05c-.07.55-.29.77-.45,1.05l.08-3.13c.2-6.78,5.14-12.2,11.92-12.79.7,8.26-2.82,13.78-10.35,15.92ZM78.7,59.95c-6.19,1.36-9.52,6.84-9.07,12.8,6.11-2.17,9.44-6.45,9.07-12.8Z"/>
  <path class="cls-3" d="M53.06,37.59c.05.42.27.83.56.83l1,.02c1.53.9,2.47,2.56,2.83,4.21.1.45.2.79.14,1.32-.15,1.45-.5,3.44-1.71,4.26-.56.38-.87.72-1.29,1.12-1.75,1.65-4.34,1.06-6.38.66-.13.02-.42,0-.51-.05.09-.55-.18-.66-.52-.92-2.6-1.92-3.21-5.56-1.72-8.37s4.51-3.75,7.59-3.09ZM56.09,43.94c0-2.74-2.23-4.97-4.97-4.97s-4.97,2.22-4.97,4.97,2.23,4.97,4.97,4.97,4.97-2.22,4.97-4.97Z"/>
  <path class="cls-2" d="M57.6,43.97c.06-.53-.04-.87-.14-1.32l2-.25c6.48,3.74,10.83,10.3,11.32,17.75-.03.39-.88.78-1.12.65-.96-.5-.41-10.41-10.01-16.26-.7-.43-1.25-.81-2.04-.57Z"/>
  <path class="cls-1" d="M53.19,76.23c.64-.26,1.08-.44,1.42-.17.23.19.59.94.18,1.15-7.18,3.69-15.84.91-19.97-6.07.42-.43,1.16-.47,1.66-.31,3.53,5.47,10.45,7.92,16.72,5.4Z"/>
  <path class="cls-1" d="M42.23,68.74l-21.89-.04c-.44,0-.44-1.41.1-1.41l21.58-.04c.52,0,.8.2.87.58.06.3-.06.91-.66.91Z"/>
  <path class="cls-1" d="M55.89,48.23c5.52,3.38,8.77,9.59,7.84,15.98-.52.41-1.46-.28-1.41-1.11.32-5.78-2.64-11.06-7.71-13.75.42-.4.73-.74,1.29-1.12Z"/>
  <path class="cls-1" d="M69.8,74.13c-1.81,2.96-4.87,11.03-4.66,10.93-.3.14-.71.15-1.26-.16.14-1,.28-2.25.69-3.2l2.21-5.17,1.37-2.4c.16-.28.38-.5.45-1.05l1.19,1.05Z"/>
  <circle class="cls-3" cx="51.09" cy="43.92" r="2.55"/>
</svg>